<svg width="64" height="30" viewBox="0 0 64 30" fill="none" xmlns="http://www.w3.org/2000/svg">
<path d="M2.75642 13.7356V0.248234H5.79728V11.1705H11.1343V13.7356H2.75642Z" fill="white"/>
<path d="M18.0118 13.9838C16.2603 13.9838 14.9226 13.4666 13.9987 12.4323C13.0747 11.398 12.6127 9.75004 12.6127 7.48836V0.248234H15.6742V7.79866C15.6742 9.12257 15.8742 10.0465 16.2741 10.5706C16.6741 11.0946 17.2533 11.3567 18.0118 11.3567C18.7703 11.3567 19.3564 11.0946 19.7701 10.5706C20.1838 10.0465 20.3907 9.12257 20.3907 7.79866V0.248234H23.3281V7.48836C23.3281 9.75004 22.873 11.398 21.9628 12.4323C21.0664 13.4666 19.7494 13.9838 18.0118 13.9838Z" fill="white"/>
<path d="M30.367 13.9838C29.4844 13.9838 28.6018 13.8183 27.7192 13.4873C26.8504 13.1564 26.0712 12.6737 25.3817 12.0393L27.1193 9.95001C27.602 10.3637 28.1398 10.7016 28.7328 10.9636C29.3258 11.2257 29.8981 11.3567 30.4498 11.3567C31.0841 11.3567 31.553 11.2394 31.8564 11.005C32.1736 10.7706 32.3322 10.4534 32.3322 10.0534C32.3322 9.62593 32.1529 9.31564 31.7944 9.12257C31.4496 8.9157 30.9807 8.68816 30.3877 8.43993L28.6294 7.69523C28.1743 7.50216 27.7399 7.24703 27.3262 6.92984C26.9124 6.59886 26.5746 6.19204 26.3125 5.70936C26.0505 5.22669 25.9195 4.66127 25.9195 4.0131C25.9195 3.2684 26.1195 2.59266 26.5194 1.98586C26.9331 1.37907 27.4985 0.896397 28.2157 0.537839C28.9466 0.17928 29.7809 0 30.7187 0C31.491 0 32.2632 0.151698 33.0355 0.455094C33.8078 0.75849 34.4835 1.19979 35.0628 1.779L33.5113 3.70281C33.07 3.35804 32.6287 3.09602 32.1874 2.91674C31.7461 2.72367 31.2565 2.62713 30.7187 2.62713C30.1946 2.62713 29.774 2.73746 29.4568 2.95811C29.1534 3.16497 29.0017 3.46147 29.0017 3.84761C29.0017 4.26133 29.1948 4.57163 29.5809 4.77849C29.9809 4.98535 30.4704 5.206 31.0497 5.44044L32.7873 6.14377C33.6009 6.47475 34.2491 6.92984 34.7318 7.50905C35.2145 8.08826 35.4558 8.85365 35.4558 9.80521C35.4558 10.5499 35.2558 11.2394 34.8559 11.8738C34.456 12.5082 33.8768 13.0184 33.1183 13.4046C32.3598 13.7907 31.4427 13.9838 30.367 13.9838Z" fill="white"/>
<path d="M41.4979 13.9838C40.6153 13.9838 39.7327 13.8183 38.8501 13.4873C37.9813 13.1564 37.2021 12.6737 36.5126 12.0393L38.2502 9.95001C38.7329 10.3637 39.2707 10.7016 39.8637 10.9636C40.4567 11.2257 41.029 11.3567 41.5807 11.3567C42.215 11.3567 42.6839 11.2394 42.9873 11.005C43.3045 10.7706 43.4631 10.4534 43.4631 10.0534C43.4631 9.62593 43.2838 9.31564 42.9253 9.12257C42.5805 8.9157 42.1116 8.68816 41.5186 8.43993L39.7603 7.69523C39.3052 7.50216 38.8708 7.24703 38.4571 6.92984C38.0433 6.59886 37.7055 6.19204 37.4434 5.70936C37.1814 5.22669 37.0504 4.66127 37.0504 4.0131C37.0504 3.2684 37.2504 2.59266 37.6503 1.98586C38.064 1.37907 38.6294 0.896397 39.3466 0.537839C40.0775 0.17928 40.9118 0 41.8496 0C42.6219 0 43.3941 0.151698 44.1664 0.455094C44.9387 0.75849 45.6144 1.19979 46.1937 1.779L44.6422 3.70281C44.2009 3.35804 43.7596 3.09602 43.3183 2.91674C42.877 2.72367 42.3874 2.62713 41.8496 2.62713C41.3255 2.62713 40.9049 2.73746 40.5877 2.95811C40.2843 3.16497 40.1326 3.46147 40.1326 3.84761C40.1326 4.26133 40.3257 4.57163 40.7118 4.77849C41.1118 4.98535 41.6013 5.206 42.1805 5.44044L43.9182 6.14377C44.7318 6.47475 45.38 6.92984 45.8627 7.50905C46.3454 8.08826 46.5867 8.85365 46.5867 9.80521C46.5867 10.5499 46.3867 11.2394 45.9868 11.8738C45.5869 12.5082 45.0076 13.0184 44.2492 13.4046C43.4907 13.7907 42.5736 13.9838 41.4979 13.9838Z" fill="white"/>
<path d="M54.3577 13.9838C53.1441 13.9838 52.0753 13.7011 51.1514 13.1357C50.2412 12.5702 49.5241 11.7635 49 10.7154C48.4898 9.65351 48.2346 8.39166 48.2346 6.92984C48.2346 5.45423 48.4898 4.20617 49 3.18566C49.5241 2.15135 50.2412 1.36528 51.1514 0.827444C52.0753 0.275815 53.1441 0 54.3577 0C55.5713 0 56.6332 0.275815 57.5434 0.827444C58.4673 1.36528 59.1845 2.15135 59.6947 3.18566C60.2188 4.21996 60.4808 5.46802 60.4808 6.92984C60.4808 8.39166 60.2188 9.65351 59.6947 10.7154C59.1845 11.7635 58.4673 12.5702 57.5434 13.1357C56.6332 13.7011 55.5713 13.9838 54.3577 13.9838ZM54.3577 11.3567C55.2817 11.3567 56.0126 10.9567 56.5504 10.1569C57.0883 9.35701 57.3572 8.28133 57.3572 6.92984C57.3572 5.57835 57.0883 4.52336 56.5504 3.76487C56.0126 3.00638 55.2817 2.62713 54.3577 2.62713C53.4337 2.62713 52.7028 3.00638 52.165 3.76487C51.6271 4.52336 51.3582 5.57835 51.3582 6.92984C51.3582 8.28133 51.6271 9.35701 52.165 10.1569C52.7028 10.9567 53.4337 11.3567 54.3577 11.3567Z" fill="white"/>
<path d="M0 29.8966V24.2424H0.715394V26.6127H3.34425V24.2424H4.06826V29.8966H3.34425V27.2332H0.715394V29.8966H0Z" fill="white"/>
<path d="M7.18276 30C6.84374 30 6.52483 29.9138 6.22603 29.7414C5.93298 29.569 5.69451 29.3191 5.51063 28.9916C5.3325 28.664 5.24344 28.2704 5.24344 27.8107C5.24344 27.3395 5.3325 26.9402 5.51063 26.6127C5.69451 26.2851 5.93298 26.0352 6.22603 25.8628C6.52483 25.6904 6.84374 25.6042 7.18276 25.6042C7.52753 25.6042 7.84644 25.6904 8.13949 25.8628C8.43254 26.0352 8.66814 26.2851 8.84627 26.6127C9.03014 26.9402 9.12208 27.3395 9.12208 27.8107C9.12208 28.2704 9.03014 28.664 8.84627 28.9916C8.66814 29.3191 8.43254 29.569 8.13949 29.7414C7.84644 29.9138 7.52753 30 7.18276 30ZM7.18276 29.4139C7.54477 29.4139 7.83495 29.2674 8.0533 28.9743C8.2774 28.6755 8.38945 28.2877 8.38945 27.8107C8.38945 27.328 8.2774 26.9373 8.0533 26.6385C7.83495 26.3397 7.54477 26.1903 7.18276 26.1903C6.8265 26.1903 6.53632 26.3397 6.31222 26.6385C6.08812 26.9373 5.97607 27.328 5.97607 27.8107C5.97607 28.2877 6.08812 28.6755 6.31222 28.9743C6.53632 29.2674 6.8265 29.4139 7.18276 29.4139Z" fill="white"/>
<path d="M10.2253 29.8966V25.7076H10.8114L10.8717 26.311H10.8976C11.0814 26.1099 11.2826 25.9432 11.5009 25.8111C11.7193 25.6732 11.952 25.6042 12.1991 25.6042C12.5209 25.6042 12.7708 25.676 12.9489 25.8197C13.1328 25.9576 13.2678 26.153 13.354 26.4058C13.5724 26.1702 13.7936 25.9777 14.0177 25.8283C14.2418 25.6789 14.4803 25.6042 14.7331 25.6042C15.1641 25.6042 15.483 25.745 15.6898 26.0265C15.9025 26.3024 16.0088 26.7075 16.0088 27.2419V29.8966H15.302V27.3367C15.302 26.9459 15.2388 26.6615 15.1124 26.4834C14.9859 26.3052 14.7906 26.2162 14.5263 26.2162C14.216 26.2162 13.8654 26.4317 13.4747 26.8626V29.8966H12.7679V27.3367C12.7679 26.9459 12.7047 26.6615 12.5783 26.4834C12.4519 26.3052 12.2537 26.2162 11.9836 26.2162C11.6733 26.2162 11.3228 26.4317 10.932 26.8626V29.8966H10.2253Z" fill="white"/>
<path d="M19.0694 30C18.6959 30 18.3569 29.9138 18.0524 29.7414C17.7478 29.5633 17.5065 29.3105 17.3284 28.9829C17.1502 28.6554 17.0612 28.2647 17.0612 27.8107C17.0612 27.351 17.1502 26.9574 17.3284 26.6299C17.5122 26.3024 17.7478 26.0495 18.0351 25.8714C18.3225 25.6933 18.6241 25.6042 18.9402 25.6042C19.4746 25.6042 19.8854 25.7823 20.1727 26.1386C20.4658 26.4949 20.6123 26.9718 20.6123 27.5694C20.6123 27.6441 20.6094 27.7188 20.6037 27.7935C20.6037 27.8624 20.5979 27.9228 20.5864 27.9745H17.7593C17.7881 28.4169 17.926 28.7703 18.1731 29.0346C18.4259 29.299 18.7534 29.4311 19.1556 29.4311C19.3568 29.4311 19.5406 29.4024 19.7073 29.3449C19.8797 29.2817 20.0434 29.2013 20.1986 29.1036L20.4485 29.569C20.2704 29.684 20.0664 29.7845 19.8366 29.8707C19.6125 29.9569 19.3568 30 19.0694 30ZM17.7507 27.466H19.9917C19.9917 27.0407 19.8998 26.719 19.7159 26.5006C19.5378 26.2765 19.2849 26.1645 18.9574 26.1645C18.6643 26.1645 18.4 26.2794 18.1644 26.5092C17.9346 26.7333 17.7967 27.0522 17.7507 27.466Z" fill="white"/>
<path d="M22.3532 29.8966L21.1896 25.7076H21.9136L22.5342 28.1296C22.5801 28.325 22.6232 28.5204 22.6635 28.7157C22.7037 28.9054 22.7439 29.0979 22.7841 29.2932H22.8186C22.8646 29.0979 22.9105 28.9054 22.9565 28.7157C23.0025 28.5204 23.0513 28.325 23.103 28.1296L23.7495 25.7076H24.439L25.0941 28.1296C25.1458 28.325 25.1946 28.5204 25.2406 28.7157C25.2923 28.9054 25.3412 29.0979 25.3871 29.2932H25.4216C25.4676 29.0979 25.5107 28.9054 25.5509 28.7157C25.5969 28.5204 25.64 28.325 25.6802 28.1296L26.2921 25.7076H26.9644L25.8439 29.8966H24.982L24.3787 27.647C24.327 27.4458 24.2781 27.2476 24.2322 27.0522C24.1919 26.8569 24.146 26.6529 24.0942 26.4403H24.0598C24.0138 26.6529 23.9678 26.8597 23.9219 27.0609C23.8759 27.2562 23.8242 27.4545 23.7667 27.6556L23.1806 29.8966H22.3532Z" fill="white"/>
<path d="M28.7573 30C28.4068 30 28.1137 29.8966 27.8781 29.6897C27.6483 29.4771 27.5334 29.1841 27.5334 28.8106C27.5334 28.3509 27.7374 28.0003 28.1453 27.759C28.5591 27.5119 29.2112 27.3395 30.1019 27.2419C30.1019 27.0637 30.076 26.8942 30.0243 26.7333C29.9784 26.5724 29.8922 26.4431 29.7657 26.3455C29.6451 26.242 29.4698 26.1903 29.24 26.1903C28.9986 26.1903 28.7717 26.2363 28.5591 26.3282C28.3465 26.4202 28.1568 26.5236 27.9902 26.6385L27.7144 26.1472C27.9097 26.0208 28.1482 25.9001 28.4298 25.7852C28.7171 25.6645 29.0274 25.6042 29.3606 25.6042C29.8721 25.6042 30.2427 25.7622 30.4725 26.0783C30.7024 26.3886 30.8173 26.8051 30.8173 27.328V29.8966H30.2312L30.1708 29.3967H30.145C29.9496 29.5575 29.7341 29.6983 29.4986 29.819C29.2687 29.9397 29.0216 30 28.7573 30ZM28.9642 29.4311C29.1653 29.4311 29.3549 29.3823 29.533 29.2846C29.7112 29.1869 29.9008 29.049 30.1019 28.8709V27.7073C29.4066 27.7935 28.9182 27.9228 28.6366 28.0952C28.3608 28.2675 28.2229 28.4888 28.2229 28.7588C28.2229 28.9944 28.2947 29.1668 28.4384 29.276C28.582 29.3794 28.7573 29.4311 28.9642 29.4311Z" fill="white"/>
<path d="M32.1352 29.8966V25.7076H32.7213L32.7817 26.4661H32.8075C32.9512 26.2018 33.1264 25.9921 33.3333 25.8369C33.5401 25.6818 33.7614 25.6042 33.997 25.6042C34.1636 25.6042 34.313 25.6329 34.4452 25.6904L34.3073 26.311C34.2383 26.288 34.1751 26.2708 34.1176 26.2593C34.0602 26.2478 33.9883 26.242 33.9022 26.242C33.724 26.242 33.5373 26.3139 33.3419 26.4575C33.1523 26.6012 32.9856 26.8511 32.842 27.2074V29.8966H32.1352Z" fill="white"/>
<path d="M36.7371 30C36.3636 30 36.0246 29.9138 35.7201 29.7414C35.4155 29.5633 35.1742 29.3105 34.9961 28.9829C34.8179 28.6554 34.7289 28.2647 34.7289 27.8107C34.7289 27.351 34.8179 26.9574 34.9961 26.6299C35.1799 26.3024 35.4155 26.0495 35.7028 25.8714C35.9901 25.6933 36.2918 25.6042 36.6078 25.6042C37.1422 25.6042 37.5531 25.7823 37.8404 26.1386C38.1334 26.4949 38.28 26.9718 38.28 27.5694C38.28 27.6441 38.2771 27.7188 38.2714 27.7935C38.2714 27.8624 38.2656 27.9228 38.2541 27.9745H35.427C35.4557 28.4169 35.5937 28.7703 35.8407 29.0346C36.0936 29.299 36.4211 29.4311 36.8233 29.4311C37.0244 29.4311 37.2083 29.4024 37.375 29.3449C37.5473 29.2817 37.7111 29.2013 37.8662 29.1036L38.1162 29.569C37.9381 29.684 37.7341 29.7845 37.5042 29.8707C37.2801 29.9569 37.0244 30 36.7371 30ZM35.4184 27.466H37.6594C37.6594 27.0407 37.5674 26.719 37.3836 26.5006C37.2054 26.2765 36.9526 26.1645 36.6251 26.1645C36.332 26.1645 36.0677 26.2794 35.8321 26.5092C35.6023 26.7333 35.4644 27.0522 35.4184 27.466Z" fill="white"/>
<path d="M41.9629 25.4663C41.9629 25.6214 41.9858 25.7823 42.0318 25.949C42.0835 26.1156 42.1496 26.2851 42.2301 26.4575C42.4886 26.2851 42.7127 26.107 42.9024 25.9231C43.0977 25.7335 43.1954 25.5151 43.1954 25.2681C43.1954 25.1014 43.1523 24.9578 43.0661 24.8371C42.9857 24.7107 42.8506 24.6475 42.661 24.6475C42.4484 24.6475 42.2789 24.725 42.1525 24.8802C42.0261 25.0353 41.9629 25.2307 41.9629 25.4663ZM42.3335 30C41.9945 30 41.6928 29.9339 41.4285 29.8018C41.1699 29.6639 40.9688 29.4771 40.8251 29.2415C40.6815 29.0059 40.6096 28.7358 40.6096 28.4313C40.6096 28.1785 40.6614 27.9544 40.7648 27.759C40.874 27.5636 41.0119 27.3884 41.1785 27.2332C41.3452 27.0781 41.5262 26.9344 41.7215 26.8023C41.6066 26.5667 41.5147 26.3397 41.4457 26.1214C41.3825 25.8973 41.3509 25.6818 41.3509 25.4749C41.3509 25.2221 41.4055 24.9951 41.5147 24.794C41.6238 24.5929 41.7761 24.4349 41.9715 24.3199C42.1726 24.1993 42.4024 24.1389 42.661 24.1389C43.0115 24.1389 43.2845 24.2424 43.4798 24.4492C43.6752 24.6561 43.7729 24.9262 43.7729 25.2594C43.7729 25.5065 43.7097 25.7277 43.5833 25.9231C43.4569 26.1185 43.296 26.2966 43.1006 26.4575C42.911 26.6184 42.7099 26.7764 42.4973 26.9316C42.6811 27.2189 42.8995 27.5004 43.1523 27.7762C43.4051 28.0463 43.6637 28.2934 43.928 28.5175C44.1004 28.2819 44.2527 28.0262 44.3849 27.7504C44.5228 27.4688 44.6348 27.1672 44.721 26.8454H45.3847C45.2755 27.2131 45.1376 27.5694 44.971 27.9142C44.8101 28.2532 44.6176 28.5721 44.3935 28.8709C44.5888 29.003 44.7756 29.1151 44.9537 29.207C45.1319 29.299 45.2985 29.3679 45.4536 29.4139L45.264 30C45.0686 29.9425 44.8589 29.8621 44.6348 29.7587C44.4165 29.6495 44.1924 29.5145 43.9625 29.3536C43.7499 29.5489 43.5086 29.7069 43.2385 29.8276C42.9684 29.9425 42.6668 30 42.3335 30ZM41.2992 28.3882C41.2992 28.7042 41.4055 28.9571 41.6181 29.1467C41.8364 29.3363 42.1008 29.4311 42.4111 29.4311C42.6064 29.4311 42.7932 29.3909 42.9713 29.3105C43.1552 29.23 43.3276 29.118 43.4885 28.9743C43.2126 28.733 42.9455 28.4687 42.6869 28.1813C42.434 27.894 42.2071 27.5981 42.006 27.2936C41.8106 27.4545 41.644 27.624 41.506 27.8021C41.3681 27.9745 41.2992 28.1699 41.2992 28.3882Z" fill="white"/>
<path d="M50.3112 30C49.817 30 49.3774 29.8851 48.9924 29.6552C48.6074 29.4196 48.3058 29.0835 48.0874 28.6468C47.8691 28.2101 47.7599 27.6843 47.7599 27.0695C47.7599 26.4604 47.8719 25.9375 48.096 25.5008C48.3201 25.0641 48.6276 24.7279 49.0183 24.4923C49.409 24.2567 49.8544 24.1389 50.3543 24.1389C50.745 24.1389 51.0725 24.2136 51.3369 24.363C51.6069 24.5067 51.8224 24.6647 51.9833 24.8371L51.5868 25.3025C51.4432 25.1531 51.2765 25.0267 51.0869 24.9233C50.8973 24.8199 50.6588 24.7681 50.3715 24.7681C49.9923 24.7681 49.6619 24.863 49.3803 25.0526C49.0987 25.2365 48.8804 25.4979 48.7252 25.8369C48.5758 26.1759 48.5011 26.5811 48.5011 27.0522C48.5011 27.7648 48.662 28.3307 48.9838 28.7502C49.3113 29.1639 49.7768 29.3708 50.3801 29.3708C50.5812 29.3708 50.7737 29.3421 50.9576 29.2846C51.1415 29.2214 51.288 29.1381 51.3972 29.0346V27.5608H50.1991V26.966H52.0522V29.3449C51.8741 29.5346 51.6328 29.6926 51.3282 29.819C51.0294 29.9397 50.6904 30 50.3112 30Z" fill="white"/>
<path d="M53.3381 29.8966V25.7076H54.0449V29.8966H53.3381ZM53.7001 24.8457C53.5622 24.8457 53.4473 24.8055 53.3554 24.725C53.2692 24.6389 53.2261 24.5239 53.2261 24.3803C53.2261 24.2424 53.2692 24.1303 53.3554 24.0441C53.4473 23.9579 53.5622 23.9148 53.7001 23.9148C53.838 23.9148 53.9501 23.9579 54.0363 24.0441C54.1282 24.1303 54.1742 24.2424 54.1742 24.3803C54.1742 24.5239 54.1282 24.6389 54.0363 24.725C53.9501 24.8055 53.838 24.8457 53.7001 24.8457Z" fill="white"/>
<path d="M55.5799 29.8966V26.2851H55.0111V25.7507L55.5799 25.7076V25.044C55.5799 24.6187 55.6776 24.2826 55.873 24.0355C56.0741 23.7827 56.3844 23.6563 56.8039 23.6563C56.936 23.6563 57.0624 23.6706 57.1831 23.6994C57.3038 23.7223 57.4101 23.754 57.502 23.7942L57.3469 24.3372C57.1917 24.2682 57.0337 24.2338 56.8728 24.2338C56.4821 24.2338 56.2867 24.5038 56.2867 25.044V25.7076H57.8209L57.9071 24.5354H58.4932V25.7076H59.631V26.2851H58.4932V28.6123C58.4932 28.8709 58.5421 29.072 58.6397 29.2157C58.7374 29.3536 58.9069 29.4225 59.1483 29.4225C59.223 29.4225 59.3034 29.411 59.3896 29.388C59.4758 29.3593 59.5534 29.3334 59.6223 29.3105L59.7602 29.8449C59.6453 29.8851 59.5189 29.9196 59.381 29.9483C59.2488 29.9828 59.1167 30 58.9845 30C58.5363 30 58.2231 29.8707 58.045 29.6121C57.8726 29.3536 57.7864 29.0174 57.7864 28.6037V26.2851H56.2867V29.8966H55.5799Z" fill="white"/>
<path d="M61.5874 30C61.2886 30 61.0041 29.9454 60.7341 29.8362C60.464 29.7213 60.2284 29.5834 60.0273 29.4225L60.3807 28.9485C60.5646 29.0921 60.7542 29.2128 60.9496 29.3105C61.1449 29.4024 61.3661 29.4484 61.6132 29.4484C61.889 29.4484 62.0959 29.3852 62.2338 29.2587C62.3717 29.1266 62.4407 28.9714 62.4407 28.7933C62.4407 28.6497 62.3918 28.529 62.2942 28.4313C62.2022 28.3336 62.0815 28.2532 61.9321 28.19C61.7885 28.121 61.6391 28.0578 61.4839 28.0003C61.2886 27.9256 61.0961 27.8423 60.9065 27.7504C60.7168 27.6527 60.5617 27.5292 60.441 27.3798C60.3204 27.2246 60.26 27.0292 60.26 26.7937C60.26 26.4546 60.3864 26.1731 60.6393 25.949C60.8978 25.7191 61.2541 25.6042 61.708 25.6042C61.9666 25.6042 62.208 25.6502 62.4321 25.7421C62.6562 25.8341 62.8486 25.9461 63.0095 26.0783L62.6648 26.5265C62.5211 26.4173 62.3717 26.3282 62.2166 26.2593C62.0614 26.1903 61.8919 26.1558 61.708 26.1558C61.4437 26.1558 61.2484 26.2162 61.1219 26.3368C61.0013 26.4575 60.9409 26.5983 60.9409 26.7592C60.9409 26.8913 60.984 27.0005 61.0702 27.0867C61.1564 27.1672 61.2685 27.239 61.4064 27.3022C61.5443 27.3597 61.6908 27.42 61.8459 27.4832C62.0471 27.5579 62.2453 27.6441 62.4407 27.7418C62.636 27.8337 62.7969 27.9601 62.9233 28.121C63.0555 28.2762 63.1216 28.4859 63.1216 28.7502C63.1216 28.9743 63.0613 29.1812 62.9406 29.3708C62.8257 29.5604 62.6533 29.7127 62.4234 29.8276C62.1993 29.9425 61.9207 30 61.5874 30Z" fill="white"/>
</svg>
