<svg width="158" height="32" viewBox="0 0 158 32" fill="none" xmlns="http://www.w3.org/2000/svg">
<path d="M8.08 19.56C7.25333 19.56 6.45333 19.4133 5.68 19.12C4.90667 18.8533 4.26667 18.3867 3.76 17.72C3.49333 17.3733 3.34667 17.0133 3.32 16.64C3.29333 16.2667 3.18667 15.96 3 15.72C2.86667 15.5333 2.70667 15.36 2.52 15.2C2.33333 15.04 2.16 14.8667 2 14.68C1.62667 14.2 1.33333 13.6533 1.12 13.04C0.933333 12.4267 0.84 11.8267 0.84 11.24C0.84 10.9467 0.853333 10.6533 0.88 10.36C0.933333 10.04 0.96 9.73333 0.96 9.44C0.96 9.38667 0.973333 9.36 1 9.36C1.05333 9.22667 1.16 8.96 1.32 8.56C1.48 8.16 1.61333 7.94667 1.72 7.92V7.8C1.66667 7.69333 1.64 7.62667 1.64 7.6C1.64 7.33333 1.81333 6.97333 2.16 6.52C2.53333 6.04 3 5.53333 3.56 5C4.12 4.46667 4.70667 3.96 5.32 3.48C5.93333 3 6.49333 2.6 7 2.28C7.50667 1.96 7.89333 1.8 8.16 1.8C8.64 1.50667 9.21333 1.25333 9.88 1.04C10.5467 0.799999 11.1733 0.666665 11.76 0.639999C11.8133 0.639999 11.8667 0.639999 11.92 0.639999C12 0.613333 12.0667 0.6 12.12 0.6C12.2267 0.573333 12.3467 0.546666 12.48 0.52C12.64 0.466666 12.76 0.439999 12.84 0.439999C13.88 0.439999 14.9333 0.559999 16 0.799999C17.0667 1.01333 18.0533 1.38667 18.96 1.92C19.8667 2.42667 20.6 3.13333 21.16 4.04C21.72 4.92 22 6.02667 22 7.36C22 7.94667 21.92 8.45333 21.76 8.88C21.6267 9.30667 21.48 9.78667 21.32 10.32C21.2667 10.5067 21.2133 10.7067 21.16 10.92C21.1067 11.1333 21.04 11.3333 20.96 11.52C20.8533 11.76 20.72 12 20.56 12.24C20.4 12.48 20.2533 12.7067 20.12 12.92C19.2933 14.0933 18.2933 15.1733 17.12 16.16C15.9733 17.12 14.7333 17.8667 13.4 18.4C12.5733 18.72 11.6933 18.9867 10.76 19.2C9.85333 19.44 8.96 19.56 8.08 19.56ZM7.56 18.96C7.74667 18.96 7.93333 18.96 8.12 18.96C8.33333 18.9333 8.53333 18.92 8.72 18.92V18.88C9.04 18.88 9.37333 18.8267 9.72 18.72C10.0667 18.6133 10.3867 18.52 10.68 18.44C10.8667 18.3867 11.1467 18.28 11.52 18.12C11.8933 17.96 12.2667 17.7867 12.64 17.6C13.04 17.4133 13.3333 17.28 13.52 17.2C14 16.9867 14.4533 16.72 14.88 16.4C15.3067 16.0533 15.72 15.72 16.12 15.4C17.4533 14.3067 18.6 13.0267 19.56 11.56C20.52 10.0667 21 8.42667 21 6.64C21 5.30667 20.6533 4.22667 19.96 3.4C19.2933 2.57333 18.4267 1.97333 17.36 1.6C16.32 1.22667 15.24 1.04 14.12 1.04C13.9333 1.04 13.7467 1.05333 13.56 1.08C13.3733 1.10667 13.1867 1.13333 13 1.16C12.6533 1.18667 12.2933 1.25333 11.92 1.36C11.5467 1.44 11.1733 1.52 10.8 1.6C9.86667 1.86667 8.88 2.30667 7.84 2.92C6.82667 3.50667 5.88 4.22667 5 5.08C4.12 5.90667 3.4 6.81333 2.84 7.8C2.30667 8.78667 2.04 9.81333 2.04 10.88C1.93333 11.04 1.86667 11.2133 1.84 11.4C1.81333 11.56 1.8 11.72 1.8 11.88C1.8 12.04 1.85333 12.3733 1.96 12.88C2.06667 13.3867 2.21333 13.8667 2.4 14.32C2.61333 14.7467 2.82667 14.96 3.04 14.96C3.12 14.96 3.22667 14.76 3.36 14.36C3.52 13.96 3.66667 13.5333 3.8 13.08C3.96 12.6 4.06667 12.2933 4.12 12.16C4.81333 10.72 5.69333 9.4 6.76 8.2C7.82667 7 9.01333 5.94667 10.32 5.04C10.6667 4.82667 11.0133 4.6 11.36 4.36C11.7067 4.12 12.0933 4 12.52 4C12.68 3.92 12.88 3.88 13.12 3.88C13.3067 3.88 13.5733 3.93333 13.92 4.04C14.2667 4.14667 14.5867 4.29333 14.88 4.48C15.1733 4.66667 15.32 4.86667 15.32 5.08C15.32 5.10667 15.3067 5.13333 15.28 5.16V5.2C15.0933 5.06667 14.8933 4.96 14.68 4.88C14.4933 4.8 14.2933 4.76 14.08 4.76C13.76 4.76 13.44 4.84 13.12 5C12.8267 5.16 12.5333 5.30667 12.24 5.44C11.8933 5.62667 11.5333 5.81333 11.16 6C10.7867 6.16 10.44 6.34667 10.12 6.56C9.34667 7.06667 8.54667 7.8 7.72 8.76C6.92 9.69333 6.21333 10.7067 5.6 11.8C5.01333 12.8667 4.62667 13.8667 4.44 14.8C4.41333 14.9333 4.37333 15.08 4.32 15.24C4.29333 15.4 4.28 15.5467 4.28 15.68C4.28 15.8667 4.30667 15.9867 4.36 16.04C4.46667 16.2 4.70667 16.36 5.08 16.52C5.45333 16.6533 5.88 16.7733 6.36 16.88C6.86667 16.9867 7.33333 17.08 7.76 17.16C8.21333 17.2133 8.53333 17.24 8.72 17.24V17.28H8.64C8.53333 17.36 8.41333 17.4133 8.28 17.44C8.14667 17.44 8.01333 17.44 7.88 17.44C7.26667 17.44 6.65333 17.36 6.04 17.2C5.42667 17.0133 4.82667 16.8267 4.24 16.64V16.68C4.24 16.8667 4.26667 17.0533 4.32 17.24C4.4 17.4 4.45333 17.5733 4.48 17.76C4.58667 18.1067 4.82667 18.3733 5.2 18.56C5.57333 18.72 5.98667 18.8267 6.44 18.88C6.89333 18.9333 7.26667 18.96 7.56 18.96ZM23.0884 19.64C22.3951 19.64 21.8751 19.48 21.5284 19.16C21.1818 18.84 20.9551 18.4267 20.8484 17.92C20.7418 17.4133 20.6884 16.8933 20.6884 16.36C20.6884 15.9333 20.5818 15.7067 20.3684 15.68C20.1551 15.6267 20.0618 15.5333 20.0884 15.4L20.9284 14.76C20.9284 14.76 20.9684 14.6133 21.0484 14.32C21.1551 14.0267 21.2618 13.72 21.3684 13.4C21.4751 13.08 21.5418 12.8933 21.5684 12.84C21.5418 12.76 21.6084 12.5333 21.7684 12.16C21.9551 11.7867 22.1551 11.3733 22.3684 10.92C22.6084 10.44 22.8351 10.0267 23.0484 9.68C23.2618 9.30667 23.3951 9.10667 23.4484 9.08V9.04H23.4084C23.5418 8.82667 23.6484 8.61333 23.7284 8.4C23.8351 8.18667 23.9818 8 24.1684 7.84C24.1684 7.78667 24.2618 7.62667 24.4484 7.36C24.6618 7.06667 24.7951 6.88 24.8484 6.8C25.5418 5.86667 26.3418 4.85333 27.2484 3.76C28.1818 2.64 29.1551 1.78667 30.1684 1.2C30.3018 1.14667 30.4218 1.09333 30.5284 1.04C30.6351 0.959999 30.7418 0.906666 30.8484 0.88C30.9018 0.88 30.9284 0.88 30.9284 0.88C30.9551 0.853333 30.9818 0.839999 31.0084 0.839999C31.3284 0.839999 31.7018 0.973332 32.1284 1.24C32.5818 1.50667 32.8084 1.82667 32.8084 2.2C32.8084 2.46667 32.6218 2.89333 32.2484 3.48C31.9018 4.04 31.4618 4.68 30.9284 5.4C30.3951 6.09333 29.8218 6.8 29.2084 7.52C28.6218 8.21333 28.0884 8.82667 27.6084 9.36C27.1284 9.89333 26.7818 10.2667 26.5684 10.48C26.4884 10.56 26.3951 10.64 26.2884 10.72C26.1818 10.8 26.0751 10.8933 25.9684 11C25.7551 11.2133 25.5418 11.44 25.3284 11.68C25.1418 11.92 24.9284 12.1467 24.6884 12.36C24.3418 12.68 23.9951 13 23.6484 13.32C23.3284 13.64 22.9951 13.9467 22.6484 14.24C22.5151 14.3467 22.3684 14.4667 22.2084 14.6C22.0751 14.7333 21.9418 14.8667 21.8084 15C21.6751 15.16 21.5818 15.4533 21.5284 15.88C21.4751 16.3067 21.4484 16.6267 21.4484 16.84C21.4484 17.08 21.4751 17.4 21.5284 17.8C21.6084 18.1733 21.7418 18.5067 21.9284 18.8C22.1151 19.0933 22.3684 19.24 22.6884 19.24C22.8484 19.24 22.9818 19.2133 23.0884 19.16C23.2218 19.1067 23.3551 19.04 23.4884 18.96C24.2618 18.5333 24.9818 18.0533 25.6484 17.52C26.3151 16.96 26.9418 16.3733 27.5284 15.76C27.7418 15.5467 27.9418 15.3333 28.1284 15.12C28.3418 14.88 28.5551 14.6533 28.7684 14.44C28.8218 14.3867 28.9284 14.28 29.0884 14.12C29.2484 13.96 29.3818 13.8933 29.4884 13.92C29.4618 14.1067 29.3551 14.28 29.1684 14.44C29.0084 14.5733 28.8751 14.72 28.7684 14.88C28.6084 15.12 28.4618 15.36 28.3284 15.6C28.1951 15.8133 28.0618 16.0533 27.9284 16.32C27.8751 16.4267 27.7951 16.5333 27.6884 16.64C27.5818 16.7467 27.4884 16.8533 27.4084 16.96C27.0084 17.44 26.5684 17.88 26.0884 18.28C25.6351 18.68 25.1018 19.0133 24.4884 19.28C24.2484 19.3867 24.0218 19.4667 23.8084 19.52C23.5951 19.6 23.3551 19.64 23.0884 19.64ZM22.2884 13.64C23.8618 12.1733 25.3951 10.6533 26.8884 9.08C28.3818 7.48 29.7018 5.76 30.8484 3.92C30.9818 3.70667 31.1551 3.37333 31.3684 2.92C31.6084 2.44 31.7284 2.09333 31.7284 1.88C31.7284 1.72 31.6884 1.62667 31.6084 1.6C31.2884 1.70667 31.0084 1.85333 30.7684 2.04C30.5284 2.22667 30.2751 2.42667 30.0084 2.64C29.9551 2.69333 29.8618 2.76 29.7284 2.84C29.6218 2.89333 29.5418 2.94667 29.4884 3C29.3018 3.21333 29.1018 3.42667 28.8884 3.64C28.6751 3.85333 28.4618 4.06667 28.2484 4.28C27.9551 4.6 27.6751 4.93333 27.4084 5.28C27.1418 5.62667 26.8751 5.97333 26.6084 6.32C25.9951 7.09333 25.4751 7.78667 25.0484 8.4C24.6484 9.01333 24.1818 9.74667 23.6484 10.6C23.5418 10.76 23.3684 11.0533 23.1284 11.48C22.8884 11.88 22.6618 12.2933 22.4484 12.72C22.2618 13.12 22.1551 13.4133 22.1284 13.6L22.2884 13.64ZM28.38 28.92C27.8733 28.92 27.34 28.8 26.78 28.56C26.1933 28.32 25.7 27.9867 25.3 27.56C24.8733 27.1333 24.66 26.64 24.66 26.08V26.04C24.6867 25.9867 24.7133 25.8933 24.74 25.76C24.74 25.6533 24.74 25.5867 24.74 25.56C24.74 25.3467 24.7267 25.12 24.7 24.88C24.6733 24.6667 24.66 24.4533 24.66 24.24C24.66 24.1067 24.6733 23.96 24.7 23.8C24.7 23.64 24.74 23.5067 24.82 23.4L24.94 23.36C24.94 23.4667 24.94 23.5733 24.94 23.68C24.9133 23.8133 24.9 23.9467 24.9 24.08C24.9 24.2933 24.94 24.5067 25.02 24.72C25.1 24.9333 25.1533 25.16 25.18 25.4C25.26 25.5067 25.3133 25.6133 25.34 25.72C25.3667 25.8267 25.3933 25.9333 25.42 26.04C25.5533 26.28 25.7 26.5067 25.86 26.72C25.9933 26.9333 26.0867 27.1733 26.14 27.44C26.5133 27.7867 26.8067 28.0533 27.02 28.24C27.2333 28.4533 27.6067 28.56 28.14 28.56C28.2467 28.56 28.4733 28.5067 28.82 28.4C29.1667 28.32 29.3533 28.2667 29.38 28.24C30.1533 27.8133 30.8333 27.3067 31.42 26.72C31.7933 26.3467 32.1267 25.9333 32.42 25.48C32.7133 25.0267 32.9933 24.5733 33.26 24.12C34.2733 22.4933 35.1267 20.7867 35.82 19C36.5133 17.2133 37.0733 15.4 37.5 13.56H37.34C37.0733 13.9867 36.7667 14.3733 36.42 14.72C36.0733 15.04 35.7667 15.4133 35.5 15.84H35.38L35.34 15.96C35.0733 16.0667 34.7667 16.3333 34.42 16.76C34.0733 17.16 33.7667 17.4667 33.5 17.68L32.62 18.4C32.5667 18.4 32.54 18.44 32.54 18.52C32.1933 18.5733 31.8733 18.72 31.58 18.96C31.3133 19.2 30.9133 19.32 30.38 19.32C30.14 19.32 29.8333 19.2133 29.46 19C29.1133 18.8133 28.8733 18.6267 28.74 18.44C28.7133 18.36 28.6867 18.28 28.66 18.2C28.6333 18.12 28.5933 18.04 28.54 17.96C28.46 17.8267 28.38 17.6933 28.3 17.56C28.22 17.4 28.18 17.24 28.18 17.08C28.18 16.8667 28.2467 16.4933 28.38 15.96C28.54 15.4267 28.7267 14.9333 28.94 14.48C29.18 14.0267 29.42 13.8 29.66 13.8C29.7133 13.7467 29.7933 13.68 29.9 13.6C30.0067 13.52 30.06 13.4267 30.06 13.32C30.06 13.2933 30.0467 13.28 30.02 13.28C30.02 13.2533 30.02 13.2267 30.02 13.2H29.94C29.9933 13.04 30.2067 12.76 30.58 12.36C30.9533 11.96 31.38 11.5333 31.86 11.08C32.3667 10.6 32.8467 10.1733 33.3 9.8C33.7533 9.42667 34.0733 9.2 34.26 9.12C34.58 8.96 34.9 8.82667 35.22 8.72C35.5667 8.58667 35.9 8.46667 36.22 8.36V8.4C36.4333 8.34667 36.6067 8.32 36.74 8.32C36.9 8.32 37.06 8.32 37.22 8.32C37.38 8.32 37.5267 8.34667 37.66 8.4C38.06 8.53333 38.4333 8.78667 38.78 9.16C39.1533 9.50667 39.34 9.90667 39.34 10.36C39.34 10.52 39.3 10.68 39.22 10.84C39.1667 10.9733 39.14 11.1333 39.14 11.32C39.3267 11.4 39.42 11.56 39.42 11.8C39.42 11.9333 39.34 12.2267 39.18 12.68C39.02 13.1067 38.8467 13.56 38.66 14.04C38.4733 14.4933 38.34 14.8267 38.26 15.04C38.18 15.3067 38.1133 15.6 38.06 15.92C38.0067 16.2133 37.9133 16.5067 37.78 16.8C37.7 17.0667 37.5933 17.3333 37.46 17.6C37.3533 17.84 37.2333 18.0933 37.1 18.36C37.0467 18.52 36.9933 18.68 36.94 18.84C36.9133 19 36.8733 19.1467 36.82 19.28C36.74 19.4667 36.6467 19.6533 36.54 19.84C36.46 20.0267 36.38 20.2267 36.3 20.44C36.22 20.6267 36.0733 20.88 35.86 21.2C35.6467 21.52 35.5133 21.7467 35.46 21.88C35.2733 22.5733 34.98 23.1467 34.58 23.6H34.62C34.62 23.6533 34.5533 23.7867 34.42 24C34.2867 24.2133 34.14 24.4267 33.98 24.64C33.8467 24.88 33.7533 25.0267 33.7 25.08C33.5933 25.08 33.54 25.1333 33.54 25.24C33.5133 25.2933 33.4067 25.44 33.22 25.68C33.0333 25.92 32.9267 26.0667 32.9 26.12C32.8733 26.2 32.82 26.2667 32.74 26.32C32.66 26.3733 32.5933 26.4267 32.54 26.48C32.4333 26.5867 32.3267 26.72 32.22 26.88C32.1133 27.04 31.9933 27.1867 31.86 27.32C31.7267 27.3467 31.5 27.4933 31.18 27.76C30.8867 28.0267 30.5 28.28 30.02 28.52C29.5667 28.7867 29.02 28.92 28.38 28.92ZM29.98 18.8C30.14 18.8 30.34 18.7733 30.58 18.72C30.82 18.64 30.9933 18.5467 31.1 18.44C31.1267 18.44 31.1533 18.4267 31.18 18.4C31.2067 18.3467 31.2333 18.3333 31.26 18.36H31.3C31.7533 18.0667 32.18 17.76 32.58 17.44C33.0067 17.0933 33.4333 16.7333 33.86 16.36C34.1 16.1467 34.34 15.88 34.58 15.56C34.8467 15.24 35.1133 15.0133 35.38 14.88L35.46 14.84V14.76C35.7 14.4667 35.9667 14.1867 36.26 13.92C36.5533 13.6533 36.8067 13.36 37.02 13.04C37.0733 12.96 37.1267 12.88 37.18 12.8C37.2333 12.6933 37.2867 12.6 37.34 12.52L38.06 11.72L38.3 11.36C38.46 11.2533 38.62 11.2 38.78 11.2C38.8067 11.1733 38.8333 11.16 38.86 11.16C38.86 11.0267 38.8067 10.8133 38.7 10.52C38.62 10.2 38.5267 9.90667 38.42 9.64C38.3133 9.34667 38.1933 9.17333 38.06 9.12C37.9533 9.04 37.8067 9 37.62 9C37.4333 8.97333 37.2733 8.96 37.14 8.96L36.58 9.08C36.1267 9.18667 35.6867 9.38667 35.26 9.68C34.86 9.97333 34.4733 10.2533 34.1 10.52L33.26 11.12C33.02 11.3067 32.8067 11.52 32.62 11.76C32.4333 11.9733 32.2333 12.1867 32.02 12.4C31.9133 12.5067 31.82 12.64 31.74 12.8C31.6867 12.96 31.6067 13.1067 31.5 13.24C31.0467 13.72 30.66 14.2267 30.34 14.76C30.0467 15.2933 29.7933 15.88 29.58 16.52C29.5 16.7067 29.42 16.92 29.34 17.16C29.26 17.3733 29.22 17.6 29.22 17.84C29.22 18.1067 29.2733 18.3333 29.38 18.52C29.5133 18.7067 29.7133 18.8 29.98 18.8ZM42.0903 18.96C41.717 18.96 41.3036 18.76 40.8503 18.36C40.397 17.9333 40.1703 17.52 40.1703 17.12H40.1303C40.157 17.0133 40.1836 16.76 40.2103 16.36C40.237 15.96 40.3036 15.7467 40.4103 15.72V15.64C40.437 15.6133 40.5036 15.5067 40.6103 15.32C40.717 15.1333 40.8236 14.9333 40.9303 14.72C41.0636 14.5067 41.1436 14.3733 41.1703 14.32C41.2503 14.1867 41.4636 13.9333 41.8103 13.56C42.157 13.16 42.517 12.7867 42.8903 12.44C43.2636 12.0933 43.5036 11.92 43.6103 11.92C43.7703 11.68 44.0636 11.4133 44.4903 11.12C44.9436 10.8267 45.397 10.5467 45.8503 10.28C46.3303 10.0133 46.6636 9.82667 46.8503 9.72V9.68L46.8903 9.72H46.9303C47.037 9.61333 47.237 9.50667 47.5303 9.4C47.8503 9.26667 48.0636 9.18667 48.1703 9.16C48.357 9.08 48.5436 9.02667 48.7303 9C48.917 8.97333 49.1036 8.94667 49.2903 8.92C49.4236 8.94667 49.557 8.96 49.6903 8.96C49.8503 8.96 49.997 8.97333 50.1303 9C50.397 9.05333 50.6903 9.2 51.0103 9.44C51.3303 9.65333 51.4903 9.92 51.4903 10.24C51.4636 10.2667 51.437 10.3067 51.4103 10.36C51.3836 10.4133 51.3836 10.4533 51.4103 10.48L51.2503 10.4C51.0903 10.1067 50.8503 9.93333 50.5303 9.88C50.2103 9.8 49.9036 9.76 49.6103 9.76C48.8903 9.76 48.1303 9.94667 47.3303 10.32C46.5303 10.6667 45.7436 11.1333 44.9703 11.72C44.197 12.3067 43.5036 12.9333 42.8903 13.6C42.3036 14.2667 41.8636 14.9067 41.5703 15.52L41.4503 16C41.397 16.2667 41.317 16.52 41.2103 16.76C41.1036 17 41.0503 17.2667 41.0503 17.56C41.0503 17.7733 41.077 17.9333 41.1303 18.04C41.1836 18.12 41.277 18.2533 41.4103 18.44L41.4903 18.4V18.44L41.5703 18.36L41.7303 18.4C41.917 18.2933 42.117 18.2133 42.3303 18.16C42.5436 18.08 42.717 17.9733 42.8503 17.84L42.9303 17.76C43.0903 17.7067 43.237 17.6133 43.3703 17.48C43.5036 17.3467 43.6236 17.2267 43.7303 17.12C44.1303 16.7467 44.5303 16.3733 44.9303 16C45.3303 15.6267 45.7036 15.24 46.0503 14.84C46.237 14.6267 46.477 14.36 46.7703 14.04C47.0636 13.72 47.317 13.4933 47.5303 13.36L47.5703 13.2C47.7836 13.12 47.9836 12.9333 48.1703 12.64C48.3836 12.3467 48.5836 12.0667 48.7703 11.8C48.9836 11.5067 49.1836 11.36 49.3703 11.36L49.5303 11.32C49.7436 11.32 49.917 11.4133 50.0503 11.6C50.1836 11.76 50.2503 11.9333 50.2503 12.12C50.2503 12.3333 50.1836 12.5733 50.0503 12.84C49.917 13.1067 49.8236 13.3467 49.7703 13.56C49.637 14.12 49.5436 14.6267 49.4903 15.08C49.437 15.5067 49.4103 16 49.4103 16.56C49.4103 16.9067 49.4636 17.2 49.5703 17.44C49.7036 17.68 49.8903 17.9333 50.1303 18.2H50.3303C50.7036 17.9867 50.9703 17.76 51.1303 17.52C51.2903 17.28 51.4903 17.0267 51.7303 16.76C51.757 16.76 51.7836 16.7467 51.8103 16.72C51.837 16.6933 51.8503 16.68 51.8503 16.68C51.9036 16.68 51.9303 16.7067 51.9303 16.76C51.9303 16.8667 51.9036 16.9733 51.8503 17.08C51.8236 17.16 51.797 17.2667 51.7703 17.4C51.717 17.6933 51.637 17.9733 51.5303 18.24C51.4503 18.48 51.197 18.6 50.7703 18.6C50.5303 18.6 50.2636 18.5467 49.9703 18.44C49.677 18.3333 49.437 18.1867 49.2503 18C48.8503 17.5467 48.597 17.0533 48.4903 16.52C48.4103 15.96 48.3703 15.3867 48.3703 14.8V13.52H48.2903C48.1836 13.68 48.0636 13.84 47.9303 14C47.797 14.16 47.6636 14.32 47.5303 14.48C47.4236 14.5867 47.2903 14.7067 47.1303 14.84C46.997 14.9467 46.877 15.08 46.7703 15.24C46.717 15.24 46.6103 15.3333 46.4503 15.52C46.317 15.68 46.2503 15.8 46.2503 15.88C46.0636 15.9067 45.8503 16.0667 45.6103 16.36C45.397 16.6533 45.2503 16.8 45.1703 16.8C45.1436 16.88 45.0503 17.0133 44.8903 17.2C44.7303 17.36 44.6103 17.48 44.5303 17.56C44.3436 17.5867 44.1836 17.68 44.0503 17.84C43.9436 18 43.837 18.1467 43.7303 18.28C43.4903 18.3867 43.2236 18.5333 42.9303 18.72C42.637 18.88 42.357 18.96 42.0903 18.96ZM81.5909 25.2C80.5243 25.2 79.6309 24.84 78.9109 24.12C78.1909 23.4267 77.5243 22.6933 76.9109 21.92C76.8043 21.7867 76.7109 21.6533 76.6309 21.52C76.5509 21.3867 76.4576 21.2667 76.3509 21.16C76.3243 21.1333 76.2709 21.08 76.1909 21C76.1109 20.9467 76.0709 20.9067 76.0709 20.88C76.0709 20.8 76.0843 20.7467 76.1109 20.72C76.1643 20.72 76.1909 20.6933 76.1909 20.64C76.1909 20.6133 76.1376 20.6 76.0309 20.6C75.9776 20.6 75.9109 20.56 75.8309 20.48C75.7509 20.4267 75.7109 20.3733 75.7109 20.32C75.7109 20.2667 75.7109 20.2133 75.7109 20.16C75.7376 20.1333 75.7509 20.1067 75.7509 20.08C75.7509 20.08 75.7509 20.0533 75.7509 20C75.7509 19.9467 75.7376 19.92 75.7109 19.92C75.6309 19.92 75.5909 19.9333 75.5909 19.96C75.5909 20.0133 75.5643 20.04 75.5109 20.04C75.4576 20.04 75.4309 20.0133 75.4309 19.96C75.4576 19.9067 75.4709 19.8667 75.4709 19.84C75.4709 19.8133 75.4443 19.8 75.3909 19.8C75.3643 19.8267 75.3509 19.84 75.3509 19.84C75.3243 19.84 75.3109 19.8267 75.3109 19.8C75.3109 19.6667 75.3109 19.6133 75.3109 19.64C75.3376 19.6933 75.3509 19.6533 75.3509 19.52C75.3509 19.4133 75.2976 19.3467 75.1909 19.32C75.1109 19.32 75.0309 19.28 74.9509 19.2C74.9243 19.1467 74.8176 18.9867 74.6309 18.72C74.4443 18.4533 74.2709 18.1867 74.1109 17.92C73.9509 17.6267 73.8709 17.4667 73.8709 17.44C73.8709 17.3867 73.8843 17.36 73.9109 17.36C73.9376 17.36 73.9509 17.3333 73.9509 17.28C73.9509 17.2267 73.9243 17.2133 73.8709 17.24C73.8176 17.2667 73.7776 17.28 73.7509 17.28L73.7109 17.24C73.5509 17.08 73.4176 16.8933 73.3109 16.68C73.2309 16.4667 73.1243 16.2667 72.9909 16.08L71.0709 12.56C70.9376 12.32 70.7376 11.9733 70.4709 11.52C70.2043 11.0667 69.9109 10.84 69.5909 10.84C69.5109 10.84 69.4043 10.8667 69.2709 10.92C69.1376 10.9467 69.0709 11 69.0709 11.08L68.9909 11.04H68.9509V11H68.9909C69.1509 10.7867 69.4043 10.6133 69.7509 10.48C70.1243 10.32 70.4309 10.24 70.6709 10.24C70.9643 10.24 71.2043 10.3467 71.3909 10.56C71.5776 10.7467 71.8043 10.84 72.0709 10.84C72.1243 10.84 72.2309 10.8267 72.3909 10.8C72.5509 10.7733 72.6443 10.7333 72.6709 10.68C72.8043 10.7067 73.0309 10.68 73.3509 10.6C73.6976 10.52 73.9509 10.4667 74.1109 10.44C74.4043 10.2533 74.6976 10.1333 74.9909 10.08C75.3109 10 75.6176 9.90667 75.9109 9.8C76.3376 9.66667 76.9243 9.44 77.6709 9.12C78.4176 8.8 79.1776 8.42667 79.9509 8C80.7243 7.57333 81.3776 7.12 81.9109 6.64C82.4443 6.13333 82.7109 5.62667 82.7109 5.12C82.7109 4.85333 82.6043 4.61333 82.3909 4.4C82.2043 4.16 82.0043 3.97333 81.7909 3.84C81.0709 3.30667 80.2576 2.93333 79.3509 2.72C78.4443 2.50667 77.5109 2.37333 76.5509 2.32C75.6176 2.26667 74.7243 2.24 73.8709 2.24C73.2043 2.24 72.5509 2.25333 71.9109 2.28C71.2976 2.28 70.6576 2.33333 69.9909 2.44C68.7109 2.62667 67.4176 2.82667 66.1109 3.04C64.8309 3.22667 63.5909 3.57333 62.3909 4.08C62.2043 4.16 61.8843 4.32 61.4309 4.56C61.0043 4.77333 60.7909 5 60.7909 5.24C60.7909 5.4 60.9509 5.50667 61.2709 5.56C61.5909 5.61333 61.9243 5.65333 62.2709 5.68C62.6443 5.68 62.8976 5.68 63.0309 5.68V5.76H62.9109C62.8043 5.86667 62.6443 5.92 62.4309 5.92C62.2176 5.92 62.0309 5.92 61.8709 5.92C61.6843 5.92 61.5109 5.93333 61.3509 5.96C61.1909 5.96 61.0176 5.96 60.8309 5.96C60.5376 5.96 60.2309 5.89333 59.9109 5.76C59.6176 5.6 59.4709 5.33333 59.4709 4.96C59.4709 4.82667 59.6309 4.62667 59.9509 4.36C60.2709 4.06667 60.6176 3.81333 60.9909 3.6C61.3909 3.36 61.6576 3.24 61.7909 3.24L61.9109 3.28L62.6309 2.92L62.6709 2.96C63.2043 2.82667 63.7376 2.68 64.2709 2.52C64.8043 2.36 65.3376 2.26667 65.8709 2.24C65.9243 2.21333 65.9909 2.2 66.0709 2.2C66.1776 2.2 66.2443 2.17333 66.2709 2.12C66.8843 2.01333 67.4843 1.93333 68.0709 1.88C68.6843 1.8 69.2976 1.73333 69.9109 1.68C70.0976 1.65333 70.2843 1.62667 70.4709 1.6C70.6576 1.54667 70.8443 1.52 71.0309 1.52C71.4843 1.52 71.9509 1.53333 72.4309 1.56C72.9109 1.58667 73.3776 1.6 73.8309 1.6C74.8176 1.6 75.8709 1.64 76.9909 1.72C78.1109 1.8 79.1643 2.02667 80.1509 2.4C81.1643 2.77333 81.9909 3.4 82.6309 4.28C82.7909 4.49333 82.9376 4.73333 83.0709 5C83.2309 5.26667 83.3109 5.54667 83.3109 5.84C83.3109 6.16 83.1909 6.53333 82.9509 6.96C82.7376 7.36 82.4709 7.73333 82.1509 8.08C81.8576 8.42667 81.5643 8.66667 81.2709 8.8C81.0309 8.90667 80.7776 9 80.5109 9.08C80.2443 9.13333 79.9909 9.2 79.7509 9.28C79.4576 9.38667 79.1776 9.53333 78.9109 9.72C78.6443 9.90667 78.3509 10.0533 78.0309 10.16C77.1243 10.5067 76.1376 10.7733 75.0709 10.96C74.0043 11.12 72.9776 11.2 71.9909 11.2C72.0176 11.3867 72.1109 11.68 72.2709 12.08C72.4576 12.48 72.6576 12.88 72.8709 13.28C73.0843 13.68 73.2443 13.9733 73.3509 14.16C73.6176 14.6133 74.0043 15.28 74.5109 16.16C75.0176 17.0133 75.5909 17.9467 76.2309 18.96C76.8976 19.9467 77.5909 20.8933 78.3109 21.8C79.0309 22.7067 79.7376 23.4533 80.4309 24.04C81.1509 24.6267 81.8043 24.92 82.3909 24.92C82.8176 24.92 83.2176 24.7333 83.5909 24.36C83.8309 24.12 84.0309 23.68 84.1909 23.04C84.3509 22.4 84.4576 21.7467 84.5109 21.08C84.5909 20.4133 84.6043 19.92 84.5509 19.6H84.6309V19.64H84.6709C84.7509 19.8 84.7909 19.9467 84.7909 20.08C84.8176 20.24 84.8309 20.4 84.8309 20.56C84.8309 20.88 84.8443 21.1867 84.8709 21.48C84.8976 21.8 84.9109 22.12 84.9109 22.44C84.9109 22.68 84.8976 22.92 84.8709 23.16C84.8443 23.4 84.7776 23.6267 84.6709 23.84C84.5376 24.1333 84.2843 24.3867 83.9109 24.6C83.5376 24.8133 83.1376 24.96 82.7109 25.04C82.2843 25.1467 81.9109 25.2 81.5909 25.2ZM65.5909 20.32C65.0309 20.32 64.5376 20.0933 64.1109 19.64C63.6843 19.1867 63.4709 18.6933 63.4709 18.16C63.4709 17.4667 63.6443 16.76 63.9909 16.04C64.3643 15.32 64.7243 14.68 65.0709 14.12C65.4176 13.5333 65.5909 13.1333 65.5909 12.92C65.6443 12.8667 65.7243 12.7867 65.8309 12.68C65.9643 12.5467 66.0043 12.4667 65.9509 12.44C66.3243 11.8533 66.6976 11.2933 67.0709 10.76C67.4443 10.2 67.8309 9.66667 68.2309 9.16C68.3109 9.02667 68.3776 8.90667 68.4309 8.8C68.5109 8.69333 68.5909 8.58667 68.6709 8.48C68.8576 8.24 69.0443 8.01333 69.2309 7.8C69.4443 7.56 69.6443 7.32 69.8309 7.08C70.1243 6.70667 70.4043 6.33333 70.6709 5.96C70.9643 5.58667 71.2443 5.21333 71.5109 4.84C71.6709 4.65333 71.8843 4.42667 72.1509 4.16C72.4443 3.89333 72.5909 3.64 72.5909 3.4C72.5909 3.26667 72.5376 3.17333 72.4309 3.12C72.3509 3.04 72.3109 2.94667 72.3109 2.84L72.3909 2.8C72.6843 2.82667 73.0443 2.93333 73.4709 3.12C73.9243 3.28 74.1509 3.56 74.1509 3.96C74.1509 4.04 74.1376 4.09333 74.1109 4.12C74.0843 4.36 73.9243 4.61333 73.6309 4.88C73.3643 5.14667 73.0709 5.4 72.7509 5.64C72.4309 5.88 72.1776 6.09333 71.9909 6.28C71.3776 6.94667 70.6443 7.78667 69.7909 8.8C68.9643 9.78667 68.1509 10.8533 67.3509 12C66.5509 13.1467 65.8843 14.3067 65.3509 15.48C64.8176 16.6267 64.5509 17.7067 64.5509 18.72C64.5509 18.9333 64.5909 19.1733 64.6709 19.44C64.7776 19.7333 64.9776 19.88 65.2709 19.88C65.4043 19.7733 65.6843 19.5733 66.1109 19.28C66.5643 19.0133 66.9909 18.7333 67.3909 18.44C67.8176 18.12 68.0309 17.9067 68.0309 17.8H68.1109C68.0309 18.0133 67.9109 18.2 67.7509 18.36C67.6176 18.52 67.4843 18.6933 67.3509 18.88C67.1643 19.1467 66.9243 19.4533 66.6309 19.8C66.3376 20.1467 65.9909 20.32 65.5909 20.32ZM81.3109 19.92C80.8843 19.92 80.5643 19.8133 80.3509 19.6C80.1643 19.4133 80.0043 19.32 79.8709 19.32C79.8443 19.1867 79.7243 19.04 79.5109 18.88C79.2976 18.72 79.1909 18.3467 79.1909 17.76C79.1909 17.2267 79.3109 16.76 79.5509 16.36C79.7909 15.96 80.0043 15.5333 80.1909 15.08C80.2443 14.9467 80.2709 14.8133 80.2709 14.68C80.2709 14.52 80.2976 14.3867 80.3509 14.28C80.4043 14.0933 80.4843 13.92 80.5909 13.76C80.6976 13.6 80.8043 13.44 80.9109 13.28C81.5243 12.24 82.2443 11.4 83.0709 10.76C83.8976 10.0933 84.8709 9.53333 85.9909 9.08H86.0309C86.1643 9.02667 86.3776 8.98667 86.6709 8.96C86.9643 8.90667 87.1776 8.88 87.3109 8.88C87.5776 8.88 87.8176 8.93333 88.0309 9.04C88.2443 9.14667 88.4309 9.2 88.5909 9.2L88.5109 9.28C88.7509 9.38667 88.9376 9.54667 89.0709 9.76C89.2043 9.94667 89.3509 10.12 89.5109 10.28C89.5643 10.3333 89.6176 10.3867 89.6709 10.44C89.7243 10.4933 89.7643 10.5467 89.7909 10.6C89.8709 10.68 89.9243 10.8 89.9509 10.96C89.9776 11.12 89.9909 11.2667 89.9909 11.4C89.9909 12.0933 89.8176 12.72 89.4709 13.28C89.1243 13.84 88.7376 14.3867 88.3109 14.92C88.1243 15.1867 87.9376 15.4533 87.7509 15.72C87.5909 15.9867 87.3909 16.24 87.1509 16.48C87.0976 16.5333 86.9509 16.6667 86.7109 16.88C86.4976 17.0933 86.2843 17.3067 86.0709 17.52C85.8843 17.7067 85.7776 17.8267 85.7509 17.88C85.5643 17.96 85.3909 18.08 85.2309 18.24C85.0709 18.4 84.8976 18.5467 84.7109 18.68C84.2309 19.0267 83.6976 19.32 83.1109 19.56C82.5243 19.8 81.9243 19.92 81.3109 19.92ZM81.1109 19.44C81.1109 19.44 81.2976 19.3867 81.6709 19.28C82.0443 19.1733 82.2843 19.1067 82.3909 19.08C82.5243 19.0267 82.7776 18.8933 83.1509 18.68C83.5509 18.44 83.9243 18.2 84.2709 17.96C84.6176 17.6933 84.7909 17.5067 84.7909 17.4C84.9776 17.3467 85.2309 17.1467 85.5509 16.8C85.8976 16.4267 86.2309 16.04 86.5509 15.64C86.8709 15.2133 87.0843 14.92 87.1909 14.76C87.2443 14.7067 87.3376 14.5733 87.4709 14.36C87.6043 14.12 87.6843 14 87.7109 14C87.7376 13.8933 87.7776 13.7867 87.8309 13.68C87.9109 13.5467 87.9509 13.44 87.9509 13.36C88.0309 13.3067 88.1109 13.1333 88.1909 12.84C88.2709 12.52 88.3376 12.36 88.3909 12.36L88.3509 12.32C88.3776 12.2667 88.3909 12.2267 88.3909 12.2C88.4176 12.1467 88.4443 12.1067 88.4709 12.08C88.4709 11.92 88.4976 11.7733 88.5509 11.64C88.6043 11.48 88.6309 11.32 88.6309 11.16C88.6843 11.0533 88.7109 10.92 88.7109 10.76C88.7109 10.6 88.7109 10.4667 88.7109 10.36L88.7509 10.32V10.28C88.7509 10.04 88.6709 9.82667 88.5109 9.64C88.3776 9.45333 88.1643 9.36 87.8709 9.36C87.1243 9.36 86.4443 9.54667 85.8309 9.92C85.2443 10.2667 84.6709 10.6533 84.1109 11.08C83.9243 11.2133 83.7376 11.36 83.5509 11.52C83.3643 11.6533 83.1909 11.8133 83.0309 12C82.9776 12.0267 82.8976 12.08 82.7909 12.16C82.6843 12.24 82.6309 12.32 82.6309 12.4C82.8709 12.3733 83.0976 12.28 83.3109 12.12C83.5509 11.9333 83.8843 11.84 84.3109 11.84C84.4443 11.84 84.6976 11.96 85.0709 12.2C85.4709 12.44 85.6709 12.6267 85.6709 12.76V12.84C85.5109 12.7867 85.3909 12.7333 85.3109 12.68C85.2576 12.6267 85.1243 12.6 84.9109 12.6C84.3776 12.6 83.8309 12.8133 83.2709 13.24C82.7376 13.64 82.2976 14.0267 81.9509 14.4C81.7909 14.5333 81.6309 14.68 81.4709 14.84C81.3376 15 81.2176 15.1733 81.1109 15.36C81.0309 15.5467 80.9909 15.76 80.9909 16C81.0443 15.9733 81.0976 16.0133 81.1509 16.12C81.2043 16.2 81.2309 16.2667 81.2309 16.32H81.1109C80.9776 16.32 80.8709 16.2933 80.7909 16.24C80.7376 16.16 80.6843 16.12 80.6309 16.12C80.5243 16.2 80.4043 16.4133 80.2709 16.76C80.1376 17.1067 80.0443 17.28 79.9909 17.28C79.9643 17.3867 79.9376 17.5067 79.9109 17.64C79.9109 17.7467 79.9109 17.8533 79.9109 17.96C79.9109 18.3867 79.9909 18.7333 80.1509 19C80.3109 19.2933 80.6309 19.44 81.1109 19.44ZM90.2941 28.92C89.7874 28.92 89.2541 28.8 88.6941 28.56C88.1074 28.32 87.6141 27.9867 87.2141 27.56C86.7874 27.1333 86.5741 26.64 86.5741 26.08V26.04C86.6007 25.9867 86.6274 25.8933 86.6541 25.76C86.6541 25.6533 86.6541 25.5867 86.6541 25.56C86.6541 25.3467 86.6407 25.12 86.6141 24.88C86.5874 24.6667 86.5741 24.4533 86.5741 24.24C86.5741 24.1067 86.5874 23.96 86.6141 23.8C86.6141 23.64 86.6541 23.5067 86.7341 23.4L86.8541 23.36C86.8541 23.4667 86.8541 23.5733 86.8541 23.68C86.8274 23.8133 86.8141 23.9467 86.8141 24.08C86.8141 24.2933 86.8541 24.5067 86.9341 24.72C87.0141 24.9333 87.0674 25.16 87.0941 25.4C87.1741 25.5067 87.2274 25.6133 87.2541 25.72C87.2807 25.8267 87.3074 25.9333 87.3341 26.04C87.4674 26.28 87.6141 26.5067 87.7741 26.72C87.9074 26.9333 88.0007 27.1733 88.0541 27.44C88.4274 27.7867 88.7207 28.0533 88.9341 28.24C89.1474 28.4533 89.5207 28.56 90.0541 28.56C90.1607 28.56 90.3874 28.5067 90.7341 28.4C91.0807 28.32 91.2674 28.2667 91.2941 28.24C92.0674 27.8133 92.7474 27.3067 93.3341 26.72C93.7074 26.3467 94.0407 25.9333 94.3341 25.48C94.6274 25.0267 94.9074 24.5733 95.1741 24.12C96.1874 22.4933 97.0407 20.7867 97.7341 19C98.4274 17.2133 98.9874 15.4 99.4141 13.56H99.2541C98.9874 13.9867 98.6807 14.3733 98.3341 14.72C97.9874 15.04 97.6807 15.4133 97.4141 15.84H97.2941L97.2541 15.96C96.9874 16.0667 96.6807 16.3333 96.3341 16.76C95.9874 17.16 95.6807 17.4667 95.4141 17.68L94.5341 18.4C94.4807 18.4 94.4541 18.44 94.4541 18.52C94.1074 18.5733 93.7874 18.72 93.4941 18.96C93.2274 19.2 92.8274 19.32 92.2941 19.32C92.0541 19.32 91.7474 19.2133 91.3741 19C91.0274 18.8133 90.7874 18.6267 90.6541 18.44C90.6274 18.36 90.6007 18.28 90.5741 18.2C90.5474 18.12 90.5074 18.04 90.4541 17.96C90.3741 17.8267 90.2941 17.6933 90.2141 17.56C90.1341 17.4 90.0941 17.24 90.0941 17.08C90.0941 16.8667 90.1607 16.4933 90.2941 15.96C90.4541 15.4267 90.6407 14.9333 90.8541 14.48C91.0941 14.0267 91.3341 13.8 91.5741 13.8C91.6274 13.7467 91.7074 13.68 91.8141 13.6C91.9207 13.52 91.9741 13.4267 91.9741 13.32C91.9741 13.2933 91.9607 13.28 91.9341 13.28C91.9341 13.2533 91.9341 13.2267 91.9341 13.2H91.8541C91.9074 13.04 92.1207 12.76 92.4941 12.36C92.8674 11.96 93.2941 11.5333 93.7741 11.08C94.2807 10.6 94.7607 10.1733 95.2141 9.8C95.6674 9.42667 95.9874 9.2 96.1741 9.12C96.4941 8.96 96.8141 8.82667 97.1341 8.72C97.4807 8.58667 97.8141 8.46667 98.1341 8.36V8.4C98.3474 8.34667 98.5207 8.32 98.6541 8.32C98.8141 8.32 98.9741 8.32 99.1341 8.32C99.2941 8.32 99.4407 8.34667 99.5741 8.4C99.9741 8.53333 100.347 8.78667 100.694 9.16C101.067 9.50667 101.254 9.90667 101.254 10.36C101.254 10.52 101.214 10.68 101.134 10.84C101.081 10.9733 101.054 11.1333 101.054 11.32C101.241 11.4 101.334 11.56 101.334 11.8C101.334 11.9333 101.254 12.2267 101.094 12.68C100.934 13.1067 100.761 13.56 100.574 14.04C100.387 14.4933 100.254 14.8267 100.174 15.04C100.094 15.3067 100.027 15.6 99.9741 15.92C99.9207 16.2133 99.8274 16.5067 99.6941 16.8C99.6141 17.0667 99.5074 17.3333 99.3741 17.6C99.2674 17.84 99.1474 18.0933 99.0141 18.36C98.9607 18.52 98.9074 18.68 98.8541 18.84C98.8274 19 98.7874 19.1467 98.7341 19.28C98.6541 19.4667 98.5607 19.6533 98.4541 19.84C98.3741 20.0267 98.2941 20.2267 98.2141 20.44C98.1341 20.6267 97.9874 20.88 97.7741 21.2C97.5607 21.52 97.4274 21.7467 97.3741 21.88C97.1874 22.5733 96.8941 23.1467 96.4941 23.6H96.5341C96.5341 23.6533 96.4674 23.7867 96.3341 24C96.2007 24.2133 96.0541 24.4267 95.8941 24.64C95.7607 24.88 95.6674 25.0267 95.6141 25.08C95.5074 25.08 95.4541 25.1333 95.4541 25.24C95.4274 25.2933 95.3207 25.44 95.1341 25.68C94.9474 25.92 94.8407 26.0667 94.8141 26.12C94.7874 26.2 94.7341 26.2667 94.6541 26.32C94.5741 26.3733 94.5074 26.4267 94.4541 26.48C94.3474 26.5867 94.2407 26.72 94.1341 26.88C94.0274 27.04 93.9074 27.1867 93.7741 27.32C93.6407 27.3467 93.4141 27.4933 93.0941 27.76C92.8007 28.0267 92.4141 28.28 91.9341 28.52C91.4807 28.7867 90.9341 28.92 90.2941 28.92ZM91.8941 18.8C92.0541 18.8 92.2541 18.7733 92.4941 18.72C92.7341 18.64 92.9074 18.5467 93.0141 18.44C93.0407 18.44 93.0674 18.4267 93.0941 18.4C93.1207 18.3467 93.1474 18.3333 93.1741 18.36H93.2141C93.6674 18.0667 94.0941 17.76 94.4941 17.44C94.9207 17.0933 95.3474 16.7333 95.7741 16.36C96.0141 16.1467 96.2541 15.88 96.4941 15.56C96.7607 15.24 97.0274 15.0133 97.2941 14.88L97.3741 14.84V14.76C97.6141 14.4667 97.8807 14.1867 98.1741 13.92C98.4674 13.6533 98.7207 13.36 98.9341 13.04C98.9874 12.96 99.0407 12.88 99.0941 12.8C99.1474 12.6933 99.2007 12.6 99.2541 12.52L99.9741 11.72L100.214 11.36C100.374 11.2533 100.534 11.2 100.694 11.2C100.721 11.1733 100.747 11.16 100.774 11.16C100.774 11.0267 100.721 10.8133 100.614 10.52C100.534 10.2 100.441 9.90667 100.334 9.64C100.227 9.34667 100.107 9.17333 99.9741 9.12C99.8674 9.04 99.7207 9 99.5341 9C99.3474 8.97333 99.1874 8.96 99.0541 8.96L98.4941 9.08C98.0407 9.18667 97.6007 9.38667 97.1741 9.68C96.7741 9.97333 96.3874 10.2533 96.0141 10.52L95.1741 11.12C94.9341 11.3067 94.7207 11.52 94.5341 11.76C94.3474 11.9733 94.1474 12.1867 93.9341 12.4C93.8274 12.5067 93.7341 12.64 93.6541 12.8C93.6007 12.96 93.5207 13.1067 93.4141 13.24C92.9607 13.72 92.5741 14.2267 92.2541 14.76C91.9607 15.2933 91.7074 15.88 91.4941 16.52C91.4141 16.7067 91.3341 16.92 91.2541 17.16C91.1741 17.3733 91.1341 17.6 91.1341 17.84C91.1341 18.1067 91.1874 18.3333 91.2941 18.52C91.4274 18.7067 91.6274 18.8 91.8941 18.8ZM104.084 19.92C103.658 19.92 103.338 19.8133 103.124 19.6C102.938 19.4133 102.778 19.32 102.644 19.32C102.618 19.1867 102.498 19.04 102.284 18.88C102.071 18.72 101.964 18.3467 101.964 17.76C101.964 17.2267 102.084 16.76 102.324 16.36C102.564 15.96 102.778 15.5333 102.964 15.08C103.018 14.9467 103.044 14.8133 103.044 14.68C103.044 14.52 103.071 14.3867 103.124 14.28C103.178 14.0933 103.258 13.92 103.364 13.76C103.471 13.6 103.578 13.44 103.684 13.28C104.298 12.24 105.018 11.4 105.844 10.76C106.671 10.0933 107.644 9.53333 108.764 9.08H108.804C108.938 9.02667 109.151 8.98667 109.444 8.96C109.738 8.90667 109.951 8.88 110.084 8.88C110.351 8.88 110.591 8.93333 110.804 9.04C111.018 9.14667 111.204 9.2 111.364 9.2L111.284 9.28C111.524 9.38667 111.711 9.54667 111.844 9.76C111.978 9.94667 112.124 10.12 112.284 10.28C112.338 10.3333 112.391 10.3867 112.444 10.44C112.498 10.4933 112.538 10.5467 112.564 10.6C112.644 10.68 112.698 10.8 112.724 10.96C112.751 11.12 112.764 11.2667 112.764 11.4C112.764 12.0933 112.591 12.72 112.244 13.28C111.898 13.84 111.511 14.3867 111.084 14.92C110.898 15.1867 110.711 15.4533 110.524 15.72C110.364 15.9867 110.164 16.24 109.924 16.48C109.871 16.5333 109.724 16.6667 109.484 16.88C109.271 17.0933 109.058 17.3067 108.844 17.52C108.658 17.7067 108.551 17.8267 108.524 17.88C108.338 17.96 108.164 18.08 108.004 18.24C107.844 18.4 107.671 18.5467 107.484 18.68C107.004 19.0267 106.471 19.32 105.884 19.56C105.298 19.8 104.698 19.92 104.084 19.92ZM103.884 19.44C103.884 19.44 104.071 19.3867 104.444 19.28C104.818 19.1733 105.058 19.1067 105.164 19.08C105.298 19.0267 105.551 18.8933 105.924 18.68C106.324 18.44 106.698 18.2 107.044 17.96C107.391 17.6933 107.564 17.5067 107.564 17.4C107.751 17.3467 108.004 17.1467 108.324 16.8C108.671 16.4267 109.004 16.04 109.324 15.64C109.644 15.2133 109.858 14.92 109.964 14.76C110.018 14.7067 110.111 14.5733 110.244 14.36C110.378 14.12 110.458 14 110.484 14C110.511 13.8933 110.551 13.7867 110.604 13.68C110.684 13.5467 110.724 13.44 110.724 13.36C110.804 13.3067 110.884 13.1333 110.964 12.84C111.044 12.52 111.111 12.36 111.164 12.36L111.124 12.32C111.151 12.2667 111.164 12.2267 111.164 12.2C111.191 12.1467 111.218 12.1067 111.244 12.08C111.244 11.92 111.271 11.7733 111.324 11.64C111.378 11.48 111.404 11.32 111.404 11.16C111.458 11.0533 111.484 10.92 111.484 10.76C111.484 10.6 111.484 10.4667 111.484 10.36L111.524 10.32V10.28C111.524 10.04 111.444 9.82667 111.284 9.64C111.151 9.45333 110.938 9.36 110.644 9.36C109.898 9.36 109.218 9.54667 108.604 9.92C108.018 10.2667 107.444 10.6533 106.884 11.08C106.698 11.2133 106.511 11.36 106.324 11.52C106.138 11.6533 105.964 11.8133 105.804 12C105.751 12.0267 105.671 12.08 105.564 12.16C105.458 12.24 105.404 12.32 105.404 12.4C105.644 12.3733 105.871 12.28 106.084 12.12C106.324 11.9333 106.658 11.84 107.084 11.84C107.218 11.84 107.471 11.96 107.844 12.2C108.244 12.44 108.444 12.6267 108.444 12.76V12.84C108.284 12.7867 108.164 12.7333 108.084 12.68C108.031 12.6267 107.898 12.6 107.684 12.6C107.151 12.6 106.604 12.8133 106.044 13.24C105.511 13.64 105.071 14.0267 104.724 14.4C104.564 14.5333 104.404 14.68 104.244 14.84C104.111 15 103.991 15.1733 103.884 15.36C103.804 15.5467 103.764 15.76 103.764 16C103.818 15.9733 103.871 16.0133 103.924 16.12C103.978 16.2 104.004 16.2667 104.004 16.32H103.884C103.751 16.32 103.644 16.2933 103.564 16.24C103.511 16.16 103.458 16.12 103.404 16.12C103.298 16.2 103.178 16.4133 103.044 16.76C102.911 17.1067 102.818 17.28 102.764 17.28C102.738 17.3867 102.711 17.5067 102.684 17.64C102.684 17.7467 102.684 17.8533 102.684 17.96C102.684 18.3867 102.764 18.7333 102.924 19C103.084 19.2933 103.404 19.44 103.884 19.44ZM113.628 19.88C113.281 19.88 113.054 19.72 112.948 19.4C112.841 19.1067 112.801 18.8133 112.828 18.52C112.908 17.96 113.028 17.3867 113.188 16.8C113.348 16.2133 113.508 15.64 113.668 15.08C113.801 14.7067 113.881 14.3333 113.908 13.96C113.961 13.56 114.028 13.1733 114.108 12.8C114.161 12.6133 114.201 12.44 114.228 12.28C114.254 12.0933 114.281 11.9067 114.308 11.72C114.334 11.6133 114.348 11.52 114.348 11.44C114.348 11.3333 114.348 11.2533 114.348 11.2C114.348 10.96 114.281 10.8 114.148 10.72C114.041 10.64 113.814 10.6 113.468 10.6C113.521 10.4933 113.614 10.4533 113.748 10.48C113.881 10.48 114.001 10.4667 114.108 10.44L114.188 10.4H114.748C115.014 10.4 115.228 10.5067 115.388 10.72C115.574 10.9333 115.668 11.16 115.668 11.4C115.668 11.56 115.641 11.72 115.588 11.88C115.534 12.0133 115.494 12.16 115.468 12.32V12.44C115.468 12.7067 115.401 12.9733 115.268 13.24C115.134 13.5067 115.014 13.7733 114.908 14.04C114.881 14.1733 114.854 14.32 114.827 14.48C114.801 14.64 114.761 14.7867 114.708 14.92C114.628 15.1067 114.534 15.2933 114.428 15.48C114.321 15.64 114.228 15.8133 114.148 16C114.121 16.1333 114.028 16.4133 113.868 16.84C113.734 17.24 113.654 17.5467 113.628 17.76V17.84L113.708 17.88V17.84C114.454 16.7467 115.214 15.6933 115.988 14.68C116.788 13.64 117.681 12.6667 118.668 11.76C119.041 11.3867 119.428 11.0267 119.828 10.68C120.228 10.3333 120.681 10.0667 121.188 9.88C121.401 9.8 121.601 9.76 121.788 9.76C122.294 9.76 122.654 9.92 122.868 10.24C122.921 10.2933 122.948 10.3867 122.948 10.52C122.948 10.7067 122.841 10.7067 122.628 10.52C122.521 10.44 122.388 10.4 122.228 10.4C122.068 10.4 121.921 10.4 121.788 10.4C121.681 10.4 121.494 10.4667 121.228 10.6C120.961 10.7067 120.708 10.84 120.468 11C120.254 11.1333 120.134 11.2667 120.108 11.4C119.974 11.4267 119.868 11.4933 119.788 11.6C119.708 11.7067 119.614 11.8133 119.508 11.92L119.268 12.08L118.308 13.04V13.16C118.228 13.16 118.148 13.2 118.067 13.28C117.961 13.3867 117.854 13.52 117.748 13.68C117.641 13.8133 117.521 13.9467 117.388 14.08C117.334 14.1333 117.268 14.2 117.188 14.28C117.134 14.3333 117.081 14.4 117.028 14.48L116.668 15.08L116.308 15.36V15.48C116.228 15.56 116.188 15.6267 116.188 15.68C116.001 15.84 115.761 16.1333 115.468 16.56C115.174 16.96 115.001 17.2667 114.948 17.48C114.681 17.6133 114.468 17.9467 114.308 18.48C114.148 19.0133 114.054 19.4 114.028 19.64C114.001 19.7467 113.934 19.8133 113.828 19.84C113.748 19.8667 113.681 19.88 113.628 19.88ZM122.598 18.96C122.225 18.96 121.811 18.76 121.358 18.36C120.905 17.9333 120.678 17.52 120.678 17.12H120.638C120.665 17.0133 120.691 16.76 120.718 16.36C120.745 15.96 120.811 15.7467 120.918 15.72V15.64C120.945 15.6133 121.011 15.5067 121.118 15.32C121.225 15.1333 121.331 14.9333 121.438 14.72C121.571 14.5067 121.651 14.3733 121.678 14.32C121.758 14.1867 121.971 13.9333 122.318 13.56C122.665 13.16 123.025 12.7867 123.398 12.44C123.771 12.0933 124.011 11.92 124.118 11.92C124.278 11.68 124.571 11.4133 124.998 11.12C125.451 10.8267 125.905 10.5467 126.358 10.28C126.838 10.0133 127.171 9.82667 127.358 9.72V9.68L127.398 9.72H127.438C127.545 9.61333 127.745 9.50667 128.038 9.4C128.358 9.26667 128.571 9.18667 128.678 9.16C128.865 9.08 129.051 9.02667 129.238 9C129.425 8.97333 129.611 8.94667 129.798 8.92C129.931 8.94667 130.065 8.96 130.198 8.96C130.358 8.96 130.505 8.97333 130.638 9C130.905 9.05333 131.198 9.2 131.518 9.44C131.838 9.65333 131.998 9.92 131.998 10.24C131.971 10.2667 131.945 10.3067 131.918 10.36C131.891 10.4133 131.891 10.4533 131.918 10.48L131.758 10.4C131.598 10.1067 131.358 9.93333 131.038 9.88C130.718 9.8 130.411 9.76 130.118 9.76C129.398 9.76 128.638 9.94667 127.838 10.32C127.038 10.6667 126.251 11.1333 125.478 11.72C124.705 12.3067 124.011 12.9333 123.398 13.6C122.811 14.2667 122.371 14.9067 122.078 15.52L121.958 16C121.905 16.2667 121.825 16.52 121.718 16.76C121.611 17 121.558 17.2667 121.558 17.56C121.558 17.7733 121.585 17.9333 121.638 18.04C121.691 18.12 121.785 18.2533 121.918 18.44L121.998 18.4V18.44L122.078 18.36L122.238 18.4C122.425 18.2933 122.625 18.2133 122.838 18.16C123.051 18.08 123.225 17.9733 123.358 17.84L123.438 17.76C123.598 17.7067 123.745 17.6133 123.878 17.48C124.011 17.3467 124.131 17.2267 124.238 17.12C124.638 16.7467 125.038 16.3733 125.438 16C125.838 15.6267 126.211 15.24 126.558 14.84C126.745 14.6267 126.985 14.36 127.278 14.04C127.571 13.72 127.825 13.4933 128.038 13.36L128.078 13.2C128.291 13.12 128.491 12.9333 128.678 12.64C128.891 12.3467 129.091 12.0667 129.278 11.8C129.491 11.5067 129.691 11.36 129.878 11.36L130.038 11.32C130.251 11.32 130.425 11.4133 130.558 11.6C130.691 11.76 130.758 11.9333 130.758 12.12C130.758 12.3333 130.691 12.5733 130.558 12.84C130.425 13.1067 130.331 13.3467 130.278 13.56C130.145 14.12 130.051 14.6267 129.998 15.08C129.945 15.5067 129.918 16 129.918 16.56C129.918 16.9067 129.971 17.2 130.078 17.44C130.211 17.68 130.398 17.9333 130.638 18.2H130.838C131.211 17.9867 131.478 17.76 131.638 17.52C131.798 17.28 131.998 17.0267 132.238 16.76C132.265 16.76 132.291 16.7467 132.318 16.72C132.345 16.6933 132.358 16.68 132.358 16.68C132.411 16.68 132.438 16.7067 132.438 16.76C132.438 16.8667 132.411 16.9733 132.358 17.08C132.331 17.16 132.305 17.2667 132.278 17.4C132.225 17.6933 132.145 17.9733 132.038 18.24C131.958 18.48 131.705 18.6 131.278 18.6C131.038 18.6 130.771 18.5467 130.478 18.44C130.185 18.3333 129.945 18.1867 129.758 18C129.358 17.5467 129.105 17.0533 128.998 16.52C128.918 15.96 128.878 15.3867 128.878 14.8V13.52H128.798C128.691 13.68 128.571 13.84 128.438 14C128.305 14.16 128.171 14.32 128.038 14.48C127.931 14.5867 127.798 14.7067 127.638 14.84C127.505 14.9467 127.385 15.08 127.278 15.24C127.225 15.24 127.118 15.3333 126.958 15.52C126.825 15.68 126.758 15.8 126.758 15.88C126.571 15.9067 126.358 16.0667 126.118 16.36C125.905 16.6533 125.758 16.8 125.678 16.8C125.651 16.88 125.558 17.0133 125.398 17.2C125.238 17.36 125.118 17.48 125.038 17.56C124.851 17.5867 124.691 17.68 124.558 17.84C124.451 18 124.345 18.1467 124.238 18.28C123.998 18.3867 123.731 18.5333 123.438 18.72C123.145 18.88 122.865 18.96 122.598 18.96ZM129.499 31.12C128.966 31.12 128.592 30.9467 128.379 30.6C128.166 30.2533 128.059 29.8533 128.059 29.4C128.059 28.8667 128.179 28.32 128.419 27.76C128.632 27.2 128.872 26.6933 129.139 26.24C129.379 25.8667 129.619 25.48 129.859 25.08C130.099 24.7067 130.352 24.3467 130.619 24C131.286 23.12 132.112 22.2 133.099 21.24C134.086 20.3067 135.032 19.5333 135.939 18.92C136.579 18.4667 137.246 18.08 137.939 17.76C138.659 17.4133 139.366 17.0667 140.059 16.72V16.76L140.099 16.72C140.339 16.6133 140.619 16.4933 140.939 16.36C141.286 16.2 141.579 16.12 141.819 16.12C141.952 16.0667 142.032 16.0133 142.059 15.96C142.192 15.8 142.299 15.56 142.379 15.24C142.486 14.8933 142.579 14.5333 142.659 14.16C142.766 13.7867 142.859 13.5067 142.939 13.32C143.046 13.1867 143.112 13.04 143.139 12.88C143.166 12.8267 143.166 12.76 143.139 12.68C143.139 12.5733 143.152 12.48 143.179 12.4C143.232 12.1067 143.286 11.84 143.339 11.6C143.392 11.36 143.432 11.0667 143.459 10.72C143.246 10.7733 142.992 10.9867 142.699 11.36C142.432 11.7067 142.192 11.9733 141.979 12.16C141.712 12.4267 141.432 12.68 141.139 12.92C140.872 13.16 140.592 13.4267 140.299 13.72C140.032 13.96 139.686 14.3067 139.259 14.76C138.832 15.2133 138.366 15.68 137.859 16.16C137.352 16.6133 136.859 17 136.379 17.32C135.899 17.64 135.486 17.8 135.139 17.8C134.846 17.8 134.512 17.68 134.139 17.44C133.792 17.2 133.552 16.9467 133.419 16.68L133.459 16.64C133.432 16.56 133.419 16.4267 133.419 16.24C133.419 15.7867 133.526 15.28 133.739 14.72C133.979 14.16 134.259 13.6133 134.579 13.08C134.899 12.5467 135.192 12.1067 135.459 11.76C135.566 11.6533 135.659 11.56 135.739 11.48C135.846 11.4 135.939 11.3067 136.019 11.2C136.232 10.9333 136.459 10.6667 136.699 10.4C136.966 10.1067 137.286 9.96 137.659 9.96C137.792 9.96 138.046 10.0533 138.419 10.24C138.792 10.4267 138.979 10.5867 138.979 10.72C138.979 10.7733 138.952 10.8 138.899 10.8C138.846 10.8 138.779 10.7867 138.699 10.76C138.646 10.7333 138.592 10.72 138.539 10.72C138.272 10.72 137.899 10.9733 137.419 11.48C136.939 11.9867 136.446 12.6 135.939 13.32C135.432 14.04 135.006 14.7333 134.659 15.4C134.339 16.04 134.179 16.5067 134.179 16.8C134.179 16.96 134.259 17.04 134.419 17.04C134.686 17.04 134.966 16.9467 135.259 16.76C135.579 16.5733 135.832 16.4 136.019 16.24H136.099C137.272 15.3867 138.392 14.4933 139.459 13.56C140.552 12.6 141.632 11.6267 142.699 10.64C142.886 10.48 143.046 10.3067 143.179 10.12C143.339 9.93333 143.512 9.77333 143.699 9.64C143.912 9.66667 144.166 9.73333 144.459 9.84C144.752 9.94667 144.899 10.1467 144.899 10.44C144.899 10.5733 144.872 10.7067 144.819 10.84C144.792 10.9467 144.766 11.0667 144.739 11.2C144.686 11.4667 144.619 11.7333 144.539 12C144.486 12.2667 144.419 12.5333 144.339 12.8C144.312 12.96 144.259 13.12 144.179 13.28C144.099 13.4133 144.032 13.56 143.979 13.72C143.952 13.88 143.926 14.0533 143.899 14.24C143.872 14.4 143.832 14.56 143.779 14.72C143.752 14.8267 143.659 15.0133 143.499 15.28C143.366 15.5467 143.299 15.7333 143.299 15.84C143.299 15.9467 143.366 16 143.499 16C143.659 15.9733 143.766 15.96 143.819 15.96C144.352 15.96 144.752 16.08 145.019 16.32C145.286 16.56 145.432 16.68 145.459 16.68C145.406 16.7067 145.339 16.72 145.259 16.72C145.179 16.72 145.112 16.7333 145.059 16.76C145.032 16.6533 144.966 16.5867 144.859 16.56C144.752 16.5333 144.646 16.52 144.539 16.52C144.379 16.52 144.139 16.5733 143.819 16.68C143.526 16.76 143.246 16.8933 142.979 17.08C142.739 17.24 142.619 17.4267 142.619 17.64C142.512 17.6933 142.326 17.92 142.059 18.32C141.792 18.72 141.632 18.9867 141.579 19.12C141.552 19.1733 141.539 19.24 141.539 19.32C141.539 19.4 141.526 19.4667 141.499 19.52C141.472 19.6267 141.379 19.7333 141.219 19.84C141.059 19.9467 140.979 20.16 140.979 20.48C140.846 20.5333 140.672 20.68 140.459 20.92C140.272 21.1867 140.179 21.3867 140.179 21.52L140.059 21.6V21.64L140.099 21.72C140.046 21.7467 139.979 21.7867 139.899 21.84C139.846 21.8933 139.819 21.96 139.819 22.04C139.712 22.0933 139.579 22.2533 139.419 22.52C139.286 22.7867 139.152 22.9333 139.019 22.96V23.08L138.739 23.28V23.4C138.632 23.48 138.446 23.6667 138.179 23.96C137.939 24.2533 137.792 24.4133 137.739 24.44V24.6C137.659 24.68 137.619 24.7333 137.619 24.76C137.512 24.7867 137.406 24.8533 137.299 24.96C137.219 25.0933 137.139 25.16 137.059 25.16L137.099 25.28C137.072 25.3067 137.019 25.36 136.939 25.44C136.859 25.52 136.806 25.5867 136.779 25.64H136.699C136.646 25.7733 136.512 25.9333 136.299 26.12C136.112 26.3067 135.952 26.4667 135.819 26.6C135.712 26.7333 135.606 26.8667 135.499 27C135.392 27.16 135.272 27.3067 135.139 27.44C134.952 27.6267 134.739 27.8 134.499 27.96C134.259 28.12 134.032 28.3067 133.819 28.52L133.379 28.96C133.246 29.0933 133.099 29.2 132.939 29.28C132.806 29.3867 132.672 29.4933 132.539 29.6C132.112 29.8933 131.632 30.2133 131.099 30.56C130.566 30.9333 130.032 31.12 129.499 31.12ZM129.139 30.8C129.272 30.8 129.392 30.7733 129.499 30.72C129.606 30.6933 129.712 30.6667 129.819 30.64L129.859 30.6V30.64C129.966 30.5867 130.206 30.44 130.579 30.2C130.952 29.9867 131.312 29.76 131.659 29.52C132.006 29.3067 132.179 29.1733 132.179 29.12C132.499 28.9067 132.792 28.6533 133.059 28.36C133.352 28.0933 133.632 27.8267 133.899 27.56C134.192 27.2933 134.486 27.0133 134.779 26.72C135.072 26.4533 135.339 26.1733 135.579 25.88C135.739 25.6667 135.886 25.4533 136.019 25.24C136.179 25.0267 136.339 24.8267 136.499 24.64C136.712 24.3467 136.939 24.0533 137.179 23.76C137.446 23.4933 137.686 23.2267 137.899 22.96C138.139 22.64 138.366 22.3067 138.579 21.96C138.792 21.64 139.006 21.32 139.219 21L140.179 19.6C140.232 19.4933 140.272 19.3867 140.299 19.28C140.352 19.2 140.406 19.1067 140.459 19C140.539 18.84 140.672 18.6267 140.859 18.36C141.046 18.0667 141.219 17.7733 141.379 17.48C141.539 17.1867 141.619 16.9733 141.619 16.84C141.619 16.7867 141.606 16.76 141.579 16.76C141.499 16.8133 141.259 16.92 140.859 17.08C140.486 17.2133 140.112 17.36 139.739 17.52C139.392 17.6533 139.206 17.7467 139.179 17.8C139.072 17.8267 138.792 18 138.339 18.32C137.886 18.6133 137.419 18.92 136.939 19.24C136.486 19.56 136.179 19.7867 136.019 19.92C135.566 20.2933 135.099 20.6933 134.619 21.12C134.166 21.5467 133.712 21.9733 133.259 22.4C133.099 22.5333 132.966 22.68 132.859 22.84C132.752 23.0267 132.632 23.2 132.499 23.36C132.419 23.44 132.232 23.64 131.939 23.96C131.646 24.28 131.486 24.4933 131.459 24.6C131.352 24.6533 131.179 24.8533 130.939 25.2C130.699 25.5467 130.459 25.9467 130.219 26.4C129.952 26.8533 129.712 27.28 129.499 27.68C129.259 28.1067 129.099 28.4 129.019 28.56V28.68C128.912 28.7867 128.846 28.9867 128.819 29.28C128.792 29.6 128.779 29.8267 128.779 29.96C128.779 30.0667 128.792 30.2267 128.819 30.44C128.846 30.68 128.952 30.8 129.139 30.8ZM147.793 18.96C147.42 18.96 147.007 18.76 146.553 18.36C146.1 17.9333 145.873 17.52 145.873 17.12H145.833C145.86 17.0133 145.887 16.76 145.913 16.36C145.94 15.96 146.007 15.7467 146.113 15.72V15.64C146.14 15.6133 146.207 15.5067 146.313 15.32C146.42 15.1333 146.527 14.9333 146.633 14.72C146.767 14.5067 146.847 14.3733 146.873 14.32C146.953 14.1867 147.167 13.9333 147.513 13.56C147.86 13.16 148.22 12.7867 148.593 12.44C148.967 12.0933 149.207 11.92 149.313 11.92C149.473 11.68 149.767 11.4133 150.193 11.12C150.647 10.8267 151.1 10.5467 151.553 10.28C152.033 10.0133 152.367 9.82667 152.553 9.72V9.68L152.593 9.72H152.633C152.74 9.61333 152.94 9.50667 153.233 9.4C153.553 9.26667 153.767 9.18667 153.873 9.16C154.06 9.08 154.247 9.02667 154.433 9C154.62 8.97333 154.807 8.94667 154.993 8.92C155.127 8.94667 155.26 8.96 155.393 8.96C155.553 8.96 155.7 8.97333 155.833 9C156.1 9.05333 156.393 9.2 156.713 9.44C157.033 9.65333 157.193 9.92 157.193 10.24C157.167 10.2667 157.14 10.3067 157.113 10.36C157.087 10.4133 157.087 10.4533 157.113 10.48L156.953 10.4C156.793 10.1067 156.553 9.93333 156.233 9.88C155.913 9.8 155.607 9.76 155.313 9.76C154.593 9.76 153.833 9.94667 153.033 10.32C152.233 10.6667 151.447 11.1333 150.673 11.72C149.9 12.3067 149.207 12.9333 148.593 13.6C148.007 14.2667 147.567 14.9067 147.273 15.52L147.153 16C147.1 16.2667 147.02 16.52 146.913 16.76C146.807 17 146.753 17.2667 146.753 17.56C146.753 17.7733 146.78 17.9333 146.833 18.04C146.887 18.12 146.98 18.2533 147.113 18.44L147.193 18.4V18.44L147.273 18.36L147.433 18.4C147.62 18.2933 147.82 18.2133 148.033 18.16C148.247 18.08 148.42 17.9733 148.553 17.84L148.633 17.76C148.793 17.7067 148.94 17.6133 149.073 17.48C149.207 17.3467 149.327 17.2267 149.433 17.12C149.833 16.7467 150.233 16.3733 150.633 16C151.033 15.6267 151.407 15.24 151.753 14.84C151.94 14.6267 152.18 14.36 152.473 14.04C152.767 13.72 153.02 13.4933 153.233 13.36L153.273 13.2C153.487 13.12 153.687 12.9333 153.873 12.64C154.087 12.3467 154.287 12.0667 154.473 11.8C154.687 11.5067 154.887 11.36 155.073 11.36L155.233 11.32C155.447 11.32 155.62 11.4133 155.753 11.6C155.887 11.76 155.953 11.9333 155.953 12.12C155.953 12.3333 155.887 12.5733 155.753 12.84C155.62 13.1067 155.527 13.3467 155.473 13.56C155.34 14.12 155.247 14.6267 155.193 15.08C155.14 15.5067 155.113 16 155.113 16.56C155.113 16.9067 155.167 17.2 155.273 17.44C155.407 17.68 155.593 17.9333 155.833 18.2H156.033C156.407 17.9867 156.673 17.76 156.833 17.52C156.993 17.28 157.193 17.0267 157.433 16.76C157.46 16.76 157.487 16.7467 157.513 16.72C157.54 16.6933 157.553 16.68 157.553 16.68C157.607 16.68 157.633 16.7067 157.633 16.76C157.633 16.8667 157.607 16.9733 157.553 17.08C157.527 17.16 157.5 17.2667 157.473 17.4C157.42 17.6933 157.34 17.9733 157.233 18.24C157.153 18.48 156.9 18.6 156.473 18.6C156.233 18.6 155.967 18.5467 155.673 18.44C155.38 18.3333 155.14 18.1867 154.953 18C154.553 17.5467 154.3 17.0533 154.193 16.52C154.113 15.96 154.073 15.3867 154.073 14.8V13.52H153.993C153.887 13.68 153.767 13.84 153.633 14C153.5 14.16 153.367 14.32 153.233 14.48C153.127 14.5867 152.993 14.7067 152.833 14.84C152.7 14.9467 152.58 15.08 152.473 15.24C152.42 15.24 152.313 15.3333 152.153 15.52C152.02 15.68 151.953 15.8 151.953 15.88C151.767 15.9067 151.553 16.0667 151.313 16.36C151.1 16.6533 150.953 16.8 150.873 16.8C150.847 16.88 150.753 17.0133 150.593 17.2C150.433 17.36 150.313 17.48 150.233 17.56C150.047 17.5867 149.887 17.68 149.753 17.84C149.647 18 149.54 18.1467 149.433 18.28C149.193 18.3867 148.927 18.5333 148.633 18.72C148.34 18.88 148.06 18.96 147.793 18.96Z" fill="#232323"/>
</svg>
