<svg width="60" height="60" viewBox="0 0 60 60" fill="none" xmlns="http://www.w3.org/2000/svg">
<path d="M27.122 55.7662L25.18 53.9142C25.1 53.837 25.044 53.7384 25.0186 53.6301C24.9932 53.5219 24.9996 53.4087 25.037 53.304C25.0743 53.1993 25.1411 53.1076 25.2293 53.0398C25.3174 52.9721 25.4232 52.9313 25.534 52.9222L28.171 52.5692L29.453 50.3092C29.5099 50.215 29.5901 50.1371 29.686 50.083C29.7818 50.0289 29.89 50.0005 30 50.0005C30.1101 50.0005 30.2182 50.0289 30.3141 50.083C30.4099 50.1371 30.4901 50.215 30.547 50.3092L31.829 52.5692L34.466 52.9222C34.5768 52.9313 34.6826 52.9721 34.7708 53.0398C34.8589 53.1076 34.9257 53.1993 34.963 53.304C35.0004 53.4087 35.0068 53.5219 34.9814 53.6301C34.956 53.7384 34.9 53.837 34.82 53.9142L32.878 55.7662L33.35 58.3122C33.3646 58.4247 33.3476 58.5391 33.3011 58.6426C33.2545 58.7462 33.1802 58.8347 33.0863 58.8986C32.9924 58.9624 32.8827 58.9989 32.7693 59.0042C32.656 59.0094 32.5433 58.9831 32.444 58.9282L30 57.6772L27.556 58.9282C27.4567 58.9831 27.3441 59.0094 27.2307 59.0042C27.1173 58.9989 27.0076 58.9624 26.9137 58.8986C26.8199 58.8347 26.7455 58.7462 26.699 58.6426C26.6524 58.5391 26.6355 58.4247 26.65 58.3122L27.122 55.7662Z" fill="#F9C55D"/>
<path d="M10.122 47.7662L8.18001 45.9142C8.10002 45.837 8.04398 45.7384 8.01861 45.6301C7.99324 45.5219 7.99962 45.4087 8.03698 45.304C8.07434 45.1993 8.1411 45.1076 8.22926 45.0398C8.31741 44.9721 8.42323 44.9313 8.53401 44.9222L11.171 44.5692L12.453 42.3092C12.5099 42.215 12.5901 42.1371 12.686 42.083C12.7818 42.0289 12.89 42.0005 13 42.0005C13.1101 42.0005 13.2182 42.0289 13.3141 42.083C13.4099 42.1371 13.4901 42.215 13.547 42.3092L14.829 44.5692L17.466 44.9222C17.5768 44.9313 17.6826 44.9721 17.7708 45.0398C17.8589 45.1076 17.9257 45.1993 17.963 45.304C18.0004 45.4087 18.0068 45.5219 17.9814 45.6301C17.956 45.7384 17.9 45.837 17.82 45.9142L15.878 47.7662L16.35 50.3122C16.3646 50.4247 16.3476 50.5391 16.3011 50.6426C16.2545 50.7462 16.1802 50.8347 16.0863 50.8986C15.9924 50.9624 15.8827 50.9989 15.7693 51.0042C15.656 51.0094 15.5433 50.9831 15.444 50.9282L13 49.6772L10.556 50.9282C10.4567 50.9831 10.3441 51.0094 10.2307 51.0042C10.1173 50.9989 10.0076 50.9624 9.91373 50.8986C9.81987 50.8347 9.74553 50.7462 9.69898 50.6426C9.65243 50.5391 9.63548 50.4247 9.65001 50.3122L10.122 47.7662Z" fill="#F9C55D"/>
<path d="M3.12201 31.7662L1.18001 29.9142C1.10002 29.837 1.04398 29.7384 1.01861 29.6301C0.993241 29.5219 0.999619 29.4087 1.03698 29.304C1.07434 29.1993 1.1411 29.1076 1.22926 29.0398C1.31741 28.9721 1.42323 28.9313 1.53401 28.9222L4.17101 28.5692L5.45301 26.3092C5.5099 26.215 5.59014 26.1371 5.68597 26.083C5.7818 26.0289 5.88998 26.0005 6.00001 26.0005C6.11005 26.0005 6.21823 26.0289 6.31406 26.083C6.40989 26.1371 6.49013 26.215 6.54701 26.3092L7.82902 28.5692L10.466 28.9222C10.5768 28.9313 10.6826 28.9721 10.7708 29.0398C10.8589 29.1076 10.9257 29.1993 10.963 29.304C11.0004 29.4087 11.0068 29.5219 10.9814 29.6301C10.9561 29.7384 10.9 29.837 10.82 29.9142L8.87802 31.7662L9.35002 34.3122C9.36455 34.4247 9.3476 34.5391 9.30105 34.6426C9.2545 34.7462 9.18016 34.8347 9.0863 34.8986C8.99244 34.9624 8.88272 34.9989 8.76934 35.0042C8.65596 35.0094 8.54335 34.9831 8.44402 34.9282L6.00001 33.6772L3.55601 34.9282C3.45668 34.9831 3.34407 35.0094 3.23069 35.0042C3.11731 34.9989 3.00759 34.9624 2.91373 34.8986C2.81987 34.8347 2.74553 34.7462 2.69898 34.6426C2.65243 34.5391 2.63548 34.4247 2.65001 34.3122L3.12201 31.7662Z" fill="#F9C55D"/>
<path d="M49.878 47.7662L51.82 45.9142C51.9 45.837 51.956 45.7384 51.9814 45.6301C52.0068 45.5219 52.0004 45.4087 51.963 45.304C51.9257 45.1993 51.8589 45.1076 51.7708 45.0398C51.6826 44.9721 51.5768 44.9313 51.466 44.9222L48.829 44.5692L47.547 42.3092C47.4901 42.215 47.4099 42.1371 47.3141 42.083C47.2182 42.0289 47.1101 42.0005 47 42.0005C46.89 42.0005 46.7818 42.0289 46.686 42.083C46.5901 42.1371 46.5099 42.215 46.453 42.3092L45.171 44.5692L42.534 44.9222C42.4232 44.9313 42.3174 44.9721 42.2293 45.0398C42.1411 45.1076 42.0743 45.1993 42.037 45.304C41.9996 45.4087 41.9932 45.5219 42.0186 45.6301C42.044 45.7384 42.1 45.837 42.18 45.9142L44.122 47.7662L43.65 50.3122C43.6355 50.4247 43.6524 50.5391 43.699 50.6426C43.7455 50.7462 43.8199 50.8347 43.9137 50.8986C44.0076 50.9624 44.1173 50.9989 44.2307 51.0042C44.3441 51.0094 44.4567 50.9831 44.556 50.9282L47 49.6772L49.444 50.9282C49.5433 50.9831 49.656 51.0094 49.7693 51.0042C49.8827 50.9989 49.9924 50.9624 50.0863 50.8986C50.1802 50.8347 50.2545 50.7462 50.3011 50.6426C50.3476 50.5391 50.3646 50.4247 50.35 50.3122L49.878 47.7662Z" fill="#F9C55D"/>
<path d="M56.878 31.7662L58.82 29.9142C58.9 29.837 58.956 29.7384 58.9814 29.6301C59.0068 29.5219 59.0004 29.4087 58.963 29.304C58.9257 29.1993 58.8589 29.1076 58.7708 29.0398C58.6826 28.9721 58.5768 28.9313 58.466 28.9222L55.829 28.5692L54.547 26.3092C54.4901 26.215 54.4099 26.1371 54.3141 26.083C54.2182 26.0289 54.1101 26.0005 54 26.0005C53.89 26.0005 53.7818 26.0289 53.686 26.083C53.5901 26.1371 53.5099 26.215 53.453 26.3092L52.171 28.5692L49.534 28.9222C49.4232 28.9313 49.3174 28.9721 49.2293 29.0398C49.1411 29.1076 49.0743 29.1993 49.037 29.304C48.9996 29.4087 48.9932 29.5219 49.0186 29.6301C49.044 29.7384 49.1 29.837 49.18 29.9142L51.122 31.7662L50.65 34.3122C50.6355 34.4247 50.6524 34.5391 50.699 34.6426C50.7455 34.7462 50.8199 34.8347 50.9137 34.8986C51.0076 34.9624 51.1173 34.9989 51.2307 35.0042C51.3441 35.0094 51.4567 34.9831 51.556 34.9282L54 33.6772L56.444 34.9282C56.5433 34.9831 56.656 35.0094 56.7693 35.0042C56.8827 34.9989 56.9924 34.9624 57.0863 34.8986C57.1802 34.8347 57.2545 34.7462 57.3011 34.6426C57.3476 34.5391 57.3646 34.4247 57.35 34.3122L56.878 31.7662Z" fill="#F9C55D"/>
<path d="M30.632 40.9001C30.2217 41.0361 29.7784 41.0361 29.368 40.9001C24.6795 39.3915 20.5805 36.4539 17.6452 32.4988C14.71 28.5438 13.0858 23.7695 13 18.845V7.27505C12.9973 6.77907 13.1789 6.29977 13.5097 5.93019C13.8405 5.56061 14.2968 5.32712 14.79 5.27505C19.7701 4.86108 24.623 3.48715 29.081 1.22905C29.3641 1.07881 29.6796 1.00024 30 1.00024C30.3205 1.00024 30.636 1.07881 30.919 1.22905C35.3746 3.48322 40.2239 4.85504 45.2 5.26905C45.6952 5.32084 46.1534 5.55461 46.486 5.92505C46.8186 6.2955 47.0017 6.77623 47 7.27405V18.845C47 28.7421 40.323 37.6601 30.632 40.9001Z" fill="#F4AA51"/>
<path d="M30.373 36.7381C30.133 36.8312 29.867 36.8312 29.627 36.7381C22.029 33.7601 17 26.8521 17 19.0001V9.90014C17.0012 9.66021 17.0886 9.42872 17.2463 9.24789C17.404 9.06707 17.6215 8.94897 17.859 8.91514C21.9124 8.32791 25.8603 7.16027 29.581 5.44814C29.7117 5.38521 29.8549 5.35254 30 5.35254C30.1451 5.35254 30.2883 5.38521 30.419 5.44814C34.14 7.15954 38.0877 8.32715 42.141 8.91514C42.3785 8.94897 42.596 9.06707 42.7537 9.24789C42.9114 9.42872 42.9988 9.66021 43 9.90014V19.0101C43 26.8641 37.97 33.7641 30.373 36.7381Z" fill="#F9C55D"/>
<path d="M43 9.89995V19.01C35.8138 23.2533 28.2313 26.7867 20.36 29.56C18.3067 26.6548 17.1427 23.215 17.01 19.66C23.83 17.29 33.71 13.2 40.9 8.69995C41.3 8.77995 41.72 8.84995 42.14 8.90995C42.3778 8.94545 42.5951 9.06469 42.7528 9.24619C42.9104 9.4277 42.9981 9.65953 43 9.89995Z" fill="#FFD37B"/>
</svg>
