<svg width="60" height="60" viewBox="0 0 60 60" fill="none" xmlns="http://www.w3.org/2000/svg">
<g clip-path="url(#clip0_4_32)">
<path d="M42.8503 7.77466L35.5641 15.0609L35.5931 15.09C39.8972 16.7043 43.3162 20.1178 44.9259 24.4228L44.9381 24.435L52.2244 17.1487L42.8503 7.77466Z" fill="#F0BC5E"/>
<path d="M15.9375 53.4376L23.6147 45.7604C23.5987 45.7266 23.5791 45.6948 23.5622 45.661L19.3256 40.4176C17.7956 38.9176 16.2731 37.4091 15.2625 35.3898L15.2503 35.3748L6.5625 44.0626L15.9375 53.4376Z" fill="#F0BC5E"/>
<path d="M57.1359 45H59.0625V39.375H57.1359C56.4065 39.375 55.755 38.9391 55.4615 38.2294C55.1775 37.5487 55.3284 36.7753 55.845 36.2578L57.209 34.8928L53.2303 30.9141L51.8644 32.2791C51.3487 32.7966 50.5744 32.9447 49.9519 32.6897L49.8572 32.6466C49.185 32.3691 48.75 31.7184 48.75 30.9891V29.0625H45.8906C45.9084 29.3747 45.9375 29.6831 45.9375 30C45.9375 33.1097 45 35.2819 43.6903 37.0828L43.7681 36.9975C44.4356 36.7172 45.1687 36.5625 45.9375 36.5625C49.0406 36.5625 51.5625 39.0844 51.5625 42.1875C51.5625 45.2906 49.0406 47.8125 45.9375 47.8125C42.8344 47.8125 40.3125 45.2906 40.3125 42.1875C40.3125 41.6044 40.4015 41.0419 40.5665 40.5122C38.6259 42.405 36.6909 44.3025 35.7862 47.2313L35.7469 47.2125C36.239 47.5491 36.5625 48.1097 36.5625 48.75C36.5625 49.4625 36.1612 50.0737 35.5762 50.3916L38.6437 53.46L40.0097 52.095C40.5253 51.5766 41.2978 51.4266 41.9222 51.6844L42.0169 51.7256C42.689 52.0059 43.125 52.6566 43.125 53.3859V55.3125H48.75V53.3859C48.75 52.6566 49.1859 52.005 49.8956 51.7116C50.5762 51.4284 51.3497 51.5775 51.8662 52.095L53.2312 53.46L57.21 49.4812L55.8459 48.1163C55.3294 47.5988 55.1784 46.8253 55.4775 46.1091C55.7559 45.4359 56.4065 45 57.1359 45Z" fill="#F0BC5E"/>
<path d="M35.7478 47.2126C35.58 47.0982 35.3934 47.0091 35.1928 46.9529L35.7478 47.2126Z" fill="#F0BC5E"/>
<path d="M45.9375 45C47.4881 45 48.75 43.7381 48.75 42.1875C48.75 40.6369 47.4881 39.375 45.9375 39.375C44.3869 39.375 43.125 40.6369 43.125 42.1875C43.125 43.7381 44.3869 45 45.9375 45ZM45.9375 41.25C46.4541 41.25 46.875 41.67 46.875 42.1875C46.875 42.705 46.4541 43.125 45.9375 43.125C45.4209 43.125 45 42.705 45 42.1875C45 41.67 45.4209 41.25 45.9375 41.25Z" fill="black"/>
<path d="M59.0625 8.50406C59.0625 4.33219 55.6678 0.9375 51.4959 0.9375C49.4747 0.9375 47.5744 1.725 46.1456 3.15375L35.3081 13.9922C33.9066 13.5216 32.4206 13.2478 30.8859 13.1662C29.5922 10.9059 27.1612 9.375 24.375 9.375C23.6616 9.375 22.9734 9.48187 22.3181 9.66844C20.7 6.62625 17.5566 4.6875 14.0625 4.6875C8.89313 4.6875 4.6875 8.89313 4.6875 14.0625C4.6875 14.7806 4.77562 15.4875 4.93594 16.1794C2.625 16.8787 0.9375 19.0266 0.9375 21.5625C0.9375 24.6647 3.46031 27.1875 6.5625 27.1875H13.3631C13.2075 28.1147 13.125 29.0559 13.125 30C13.125 32.0634 13.5066 33.7425 14.1225 35.1769L5.75906 43.5413L1.10531 55.6406C0.99375 55.9294 0.9375 56.2331 0.9375 56.5434C0.9375 57.9328 2.06813 59.0625 3.45656 59.0625C3.76688 59.0625 4.07063 59.0053 4.36031 58.8947L16.4597 54.2409L22.575 48.1247C22.5291 48.3263 22.5 48.5344 22.5 48.75C22.5 49.4728 22.7822 50.1263 23.2313 50.625C22.7812 51.1237 22.5 51.7772 22.5 52.5C22.5 53.8031 23.3953 54.8925 24.6 55.2094C25.3988 57.4969 27.5381 59.0625 30 59.0625C32.4619 59.0625 34.6012 57.4969 35.4 55.2094C36.6047 54.8925 37.5 53.8031 37.5 52.5C37.5 51.7772 37.2178 51.1237 36.7688 50.625C37.2188 50.1263 37.5 49.4728 37.5 48.75C37.5 48.0844 37.2581 47.4806 36.87 46.9978C37.4531 45.4238 38.3672 44.1647 39.4313 43.0022C39.8344 46.2366 42.5953 48.75 45.9375 48.75C49.5563 48.75 52.5 45.8053 52.5 42.1875C52.5 38.5697 49.5563 35.625 45.9375 35.625C45.8456 35.625 45.7566 35.6344 45.6656 35.6381C46.4034 34.1044 46.875 32.2903 46.875 30C46.875 28.1522 46.5581 26.3747 45.9975 24.7041L56.8463 13.8553C58.275 12.4256 59.0625 10.5253 59.0625 8.50406ZM2.8125 21.5625C2.8125 19.4944 4.49437 17.8125 6.5625 17.8125C8.63063 17.8125 10.3125 19.4944 10.3125 21.5625H12.1875C12.1875 18.5419 9.79219 16.0763 6.8025 15.9497C6.64313 15.3366 6.5625 14.7037 6.5625 14.0625C6.5625 9.92719 9.92719 6.5625 14.0625 6.5625C16.8047 6.5625 19.2797 8.05312 20.5959 10.4072C18.5972 11.58 17.1853 13.6453 16.9219 16.0556C15.285 16.4587 14.0625 17.9278 14.0625 19.6875H15.9375C15.9375 18.6534 16.7784 17.8125 17.8125 17.8125C18.8466 17.8125 19.6875 18.6534 19.6875 19.6875H21.5625C21.5625 17.9672 20.3925 16.53 18.8109 16.0894C19.1953 13.3594 21.54 11.25 24.375 11.25C27.4772 11.25 30 13.7728 30 16.875C30 17.3681 29.9194 17.8509 29.7938 18.3216C28.2563 19.0912 27.1875 20.6663 27.1875 22.5H29.0625C29.0625 20.9494 30.3244 19.6875 31.875 19.6875C33.4256 19.6875 34.6875 20.9494 34.6875 22.5C34.6875 24.0506 33.4256 25.3125 31.875 25.3125H6.5625C4.49437 25.3125 2.8125 23.6306 2.8125 21.5625ZM25.3125 27.1875V30C25.3125 31.5506 26.5744 32.8125 28.125 32.8125H35.625C36.1416 32.8125 36.5625 33.2325 36.5625 33.75C36.5625 34.2675 36.1416 34.6875 35.625 34.6875H26.25C24.6994 34.6875 23.4375 35.9494 23.4375 37.5C23.4375 39.0506 24.6994 40.3125 26.25 40.3125H28.125C28.6416 40.3125 29.0625 40.7325 29.0625 41.25V45.9375H25.3125C25.1222 45.9375 24.9366 45.9572 24.7575 45.9938C23.6869 43.3622 21.8475 41.5566 20.0569 39.81C17.4562 37.2741 15 34.8778 15 30C15 29.0522 15.1134 28.1128 15.2888 27.1875H25.3125ZM35.625 48.75C35.625 49.2675 35.2041 49.6875 34.6875 49.6875H25.3125C24.7959 49.6875 24.375 49.2675 24.375 48.75C24.375 48.2325 24.7959 47.8125 25.3125 47.8125H34.6875C35.2041 47.8125 35.625 48.2325 35.625 48.75ZM3.68813 57.1444C3.28219 57.3019 2.8125 56.9784 2.8125 56.5434C2.8125 56.4637 2.8275 56.3859 2.85469 56.3128L3.79406 53.8697L6.12937 56.205L3.68813 57.1444ZM15.4153 52.6341L8.04469 55.4691L4.53094 51.9553L7.36594 44.5847L15.0413 36.9094C15.9216 38.2922 17.0128 39.4453 18.1284 40.5459L10.5872 48.0872L11.9128 49.4128L19.4672 41.8584C20.6203 43.0022 21.6909 44.1591 22.4803 45.5681L15.4153 52.6341ZM30 57.1875C28.6153 57.1875 27.3806 56.4506 26.6962 55.3125H33.3037C32.6194 56.4506 31.3847 57.1875 30 57.1875ZM34.6875 53.4375H25.3125C24.7959 53.4375 24.375 53.0175 24.375 52.5C24.375 51.9825 24.7959 51.5625 25.3125 51.5625H34.6875C35.2041 51.5625 35.625 51.9825 35.625 52.5C35.625 53.0175 35.2041 53.4375 34.6875 53.4375ZM35.2425 45.9938C35.0634 45.9572 34.8778 45.9375 34.6875 45.9375H30.9375V41.25C30.9375 39.6994 29.6756 38.4375 28.125 38.4375H26.25C25.7334 38.4375 25.3125 38.0175 25.3125 37.5C25.3125 36.9825 25.7334 36.5625 26.25 36.5625H35.625C37.1756 36.5625 38.4375 35.3006 38.4375 33.75C38.4375 32.1994 37.1756 30.9375 35.625 30.9375H28.125C27.6084 30.9375 27.1875 30.5175 27.1875 30V27.1875H31.875C34.4597 27.1875 36.5625 25.0847 36.5625 22.5C36.5625 19.9153 34.4597 17.8125 31.875 17.8125C31.8487 17.8125 31.8244 17.82 31.7981 17.82C31.8384 17.5069 31.875 17.1938 31.875 16.875C31.875 16.2619 31.7925 15.6684 31.6537 15.0975C39.1275 15.93 45 22.3444 45 30C45 34.8778 42.5438 37.2741 39.9431 39.81C38.1525 41.5566 36.3131 43.3622 35.2425 45.9938ZM45.9375 37.5C48.5222 37.5 50.625 39.6028 50.625 42.1875C50.625 44.7722 48.5222 46.875 45.9375 46.875C43.3528 46.875 41.25 44.7722 41.25 42.1875C41.25 41.7816 41.3128 41.3822 41.415 40.9931C42.4378 39.9947 43.4625 38.9747 44.3466 37.7953C44.8566 37.6097 45.3872 37.5 45.9375 37.5ZM42.5409 18.7856L48.2006 13.125L46.875 11.7994L41.2172 17.4572C40.0134 16.3772 38.6588 15.4688 37.185 14.7656L45 6.95062L53.0494 15L45.2297 22.8197C44.5275 21.3459 43.62 19.9903 42.5409 18.7856ZM54.375 13.6744L46.3256 5.625L47.4713 4.47937C48.5466 3.405 49.9753 2.8125 51.4959 2.8125C54.6338 2.8125 57.1875 5.36625 57.1875 8.50406C57.1875 10.0238 56.5959 11.4534 55.5206 12.5288L54.375 13.6744Z" fill="black"/>
</g>
<defs>
<clipPath id="clip0_4_32">
<rect width="60" height="60" fill="white"/>
</clipPath>
</defs>
</svg>
