<svg width="127" height="60" viewBox="0 0 127 60" fill="none" xmlns="http://www.w3.org/2000/svg">
<path d="M5.51284 27.4711V0.496467H11.5946V22.341H22.2686V27.4711H5.51284Z" fill="#232323"/>
<path d="M36.0235 27.9676C32.5207 27.9676 29.8453 26.9333 27.9973 24.8647C26.1494 22.7961 25.2254 19.5001 25.2254 14.9767V0.496467H31.3485V15.5973C31.3485 18.2451 31.7484 20.0931 32.5483 21.1412C33.3481 22.1893 34.5066 22.7133 36.0235 22.7133C37.5405 22.7133 38.7127 22.1893 39.5402 21.1412C40.3676 20.0931 40.7813 18.2451 40.7813 15.5973V0.496467H46.6562V14.9767C46.6562 19.5001 45.746 22.7961 43.9256 24.8647C42.1328 26.9333 39.4988 27.9676 36.0235 27.9676Z" fill="#232323"/>
<path d="M60.734 27.9676C58.9688 27.9676 57.2036 27.6366 55.4384 26.9747C53.7008 26.3127 52.1424 25.3474 50.7633 24.0786L54.2386 19.9C55.204 20.7275 56.2796 21.4032 57.4656 21.9273C58.6516 22.4513 59.7963 22.7133 60.8995 22.7133C62.1683 22.7133 63.106 22.4789 63.7128 22.01C64.3472 21.5411 64.6644 20.9067 64.6644 20.1069C64.6644 19.2519 64.3058 18.6313 63.5887 18.2451C62.8992 17.8314 61.9614 17.3763 60.7754 16.8799L57.2588 15.3905C56.3486 15.0043 55.4798 14.4941 54.6523 13.8597C53.8249 13.1977 53.1491 12.3841 52.6251 11.4187C52.101 10.4534 51.839 9.32253 51.839 8.0262C51.839 6.5368 52.2389 5.18531 53.0388 3.97173C53.8663 2.75815 54.9971 1.79279 56.4313 1.07568C57.8931 0.358559 59.5618 0 61.4374 0C62.9819 0 64.5265 0.303396 66.071 0.910188C67.6156 1.51698 68.9671 2.39959 70.1255 3.55801L67.0226 7.40562C66.14 6.71608 65.2574 6.19204 64.3748 5.83348C63.4922 5.44734 62.513 5.25427 61.4374 5.25427C60.3893 5.25427 59.548 5.47492 58.9137 5.91622C58.3069 6.32994 58.0035 6.92294 58.0035 7.69523C58.0035 8.52267 58.3896 9.14325 59.1619 9.55697C59.9618 9.9707 60.9409 10.412 62.0993 10.8809L65.5746 12.2875C67.2019 12.9495 68.4982 13.8597 69.4636 15.0181C70.4289 16.1765 70.9116 17.7073 70.9116 19.6104C70.9116 21.0998 70.5117 22.4789 69.7118 23.7476C68.9119 25.0164 67.7535 26.0369 66.2365 26.8092C64.7196 27.5815 62.8854 27.9676 60.734 27.9676Z" fill="#232323"/>
<path d="M82.9958 27.9676C81.2306 27.9676 79.4654 27.6366 77.7002 26.9747C75.9625 26.3127 74.4042 25.3474 73.0251 24.0786L76.5004 19.9C77.4657 20.7275 78.5414 21.4032 79.7274 21.9273C80.9134 22.4513 82.0581 22.7133 83.1613 22.7133C84.4301 22.7133 85.3678 22.4789 85.9746 22.01C86.609 21.5411 86.9262 20.9067 86.9262 20.1069C86.9262 19.2519 86.5676 18.6313 85.8505 18.2451C85.161 17.8314 84.2232 17.3763 83.0372 16.8799L79.5206 15.3905C78.6104 15.0043 77.7416 14.4941 76.9141 13.8597C76.0867 13.1977 75.4109 12.3841 74.8869 11.4187C74.3628 10.4534 74.1008 9.32253 74.1008 8.0262C74.1008 6.5368 74.5007 5.18531 75.3006 3.97173C76.128 2.75815 77.2589 1.79279 78.6931 1.07568C80.1549 0.358559 81.8236 0 83.6992 0C85.2437 0 86.7883 0.303396 88.3328 0.910188C89.8774 1.51698 91.2289 2.39959 92.3873 3.55801L89.2844 7.40562C88.4018 6.71608 87.5192 6.19204 86.6366 5.83348C85.754 5.44734 84.7748 5.25427 83.6992 5.25427C82.6511 5.25427 81.8098 5.47492 81.1754 5.91622C80.5686 6.32994 80.2653 6.92294 80.2653 7.69523C80.2653 8.52267 80.6514 9.14325 81.4237 9.55697C82.2235 9.9707 83.2027 10.412 84.3611 10.8809L87.8364 12.2875C89.4637 12.9495 90.76 13.8597 91.7253 15.0181C92.6907 16.1765 93.1734 17.7073 93.1734 19.6104C93.1734 21.0998 92.7734 22.4789 91.9736 23.7476C91.1737 25.0164 90.0153 26.0369 88.4983 26.8092C86.9813 27.5815 85.1472 27.9676 82.9958 27.9676Z" fill="#232323"/>
<path d="M108.715 27.9676C106.288 27.9676 104.151 27.4022 102.303 26.2713C100.482 25.1405 99.0481 23.527 98 21.4308C96.9795 19.307 96.4692 16.7833 96.4692 13.8597C96.4692 10.9085 96.9795 8.41234 98 6.37131C99.0481 4.30271 100.482 2.73056 102.303 1.65489C104.151 0.551629 106.288 0 108.715 0C111.143 0 113.266 0.551629 115.087 1.65489C116.935 2.73056 118.369 4.30271 119.389 6.37131C120.438 8.43992 120.962 10.936 120.962 13.8597C120.962 16.7833 120.438 19.307 119.389 21.4308C118.369 23.527 116.935 25.1405 115.087 26.2713C113.266 27.4022 111.143 27.9676 108.715 27.9676ZM108.715 22.7133C110.563 22.7133 112.025 21.9135 113.101 20.3137C114.177 18.714 114.714 16.5627 114.714 13.8597C114.714 11.1567 114.177 9.04672 113.101 7.52974C112.025 6.01276 110.563 5.25427 108.715 5.25427C106.867 5.25427 105.406 6.01276 104.33 7.52974C103.254 9.04672 102.716 11.1567 102.716 13.8597C102.716 16.5627 103.254 18.714 104.33 20.3137C105.406 21.9135 106.867 22.7133 108.715 22.7133Z" fill="#232323"/>
<path d="M0 59.7931V48.4847H1.43079V53.2253H6.6885V48.4847H8.13653V59.7931H6.6885V54.4665H1.43079V59.7931H0Z" fill="#232323"/>
<path d="M14.3655 60C13.6875 60 13.0497 59.8276 12.4521 59.4828C11.866 59.1381 11.389 58.6382 11.0213 57.9831C10.665 57.328 10.4869 56.5408 10.4869 55.6214C10.4869 54.6791 10.665 53.8804 11.0213 53.2253C11.389 52.5702 11.866 52.0703 12.4521 51.7256C13.0497 51.3808 13.6875 51.2084 14.3655 51.2084C15.0551 51.2084 15.6929 51.3808 16.279 51.7256C16.8651 52.0703 17.3363 52.5702 17.6925 53.2253C18.0603 53.8804 18.2442 54.6791 18.2442 55.6214C18.2442 56.5408 18.0603 57.328 17.6925 57.9831C17.3363 58.6382 16.8651 59.1381 16.279 59.4828C15.6929 59.8276 15.0551 60 14.3655 60ZM14.3655 58.8278C15.0895 58.8278 15.6699 58.5347 16.1066 57.9486C16.5548 57.351 16.7789 56.5753 16.7789 55.6214C16.7789 54.6561 16.5548 53.8746 16.1066 53.277C15.6699 52.6794 15.0895 52.3806 14.3655 52.3806C13.653 52.3806 13.0726 52.6794 12.6244 53.277C12.1762 53.8746 11.9521 54.6561 11.9521 55.6214C11.9521 56.5753 12.1762 57.351 12.6244 57.9486C13.0726 58.5347 13.653 58.8278 14.3655 58.8278Z" fill="#232323"/>
<path d="M20.4505 59.7931V51.4153H21.6228L21.7434 52.622H21.7951C22.1629 52.2197 22.5651 51.8865 23.0018 51.6221C23.4385 51.3463 23.904 51.2084 24.3981 51.2084C25.0417 51.2084 25.5416 51.3521 25.8979 51.6394C26.2656 51.9152 26.5357 52.3059 26.7081 52.8116C27.1448 52.3404 27.5872 51.9554 28.0354 51.6566C28.4836 51.3578 28.9606 51.2084 29.4662 51.2084C30.3281 51.2084 30.966 51.49 31.3797 52.0531C31.8049 52.6047 32.0175 53.4149 32.0175 54.4837V59.7931H30.604V54.6733C30.604 53.8919 30.4775 53.323 30.2247 52.9667C29.9719 52.6105 29.5812 52.4323 29.0525 52.4323C28.4319 52.4323 27.7309 52.8633 26.9494 53.7252V59.7931H25.5359V54.6733C25.5359 53.8919 25.4095 53.323 25.1566 52.9667C24.9038 52.6105 24.5073 52.4323 23.9672 52.4323C23.3466 52.4323 22.6456 52.8633 21.8641 53.7252V59.7931H20.4505Z" fill="#232323"/>
<path d="M38.1389 60C37.3919 60 36.7139 59.8276 36.1048 59.4828C35.4957 59.1266 35.013 58.6209 34.6567 57.9659C34.3005 57.3108 34.1223 56.5293 34.1223 55.6214C34.1223 54.7021 34.3005 53.9148 34.6567 53.2598C35.0245 52.6047 35.4957 52.0991 36.0703 51.7428C36.6449 51.3865 37.2482 51.2084 37.8803 51.2084C38.9491 51.2084 39.7708 51.5647 40.3454 52.2772C40.9315 52.9897 41.2246 53.9436 41.2246 55.1388C41.2246 55.2882 41.2188 55.4376 41.2073 55.587C41.2073 55.7249 41.1958 55.8455 41.1729 55.949H35.5187C35.5761 56.8339 35.8519 57.5407 36.3461 58.0693C36.8518 58.5979 37.5068 58.8623 38.3113 58.8623C38.7135 58.8623 39.0813 58.8048 39.4145 58.6899C39.7593 58.5635 40.0868 58.4026 40.3971 58.2072L40.897 59.1381C40.5408 59.3679 40.1328 59.569 39.6731 59.7414C39.2249 59.9138 38.7135 60 38.1389 60ZM35.5014 54.9319H39.9834C39.9834 54.0815 39.7995 53.4379 39.4318 53.0012C39.0755 52.553 38.5699 52.3289 37.9148 52.3289C37.3287 52.3289 36.8 52.5588 36.3289 53.0184C35.8692 53.4666 35.5934 54.1045 35.5014 54.9319Z" fill="#232323"/>
<path d="M44.7063 59.7931L42.3791 51.4153H43.8272L45.0683 56.2593C45.1603 56.65 45.2465 57.0407 45.3269 57.4315C45.4074 57.8107 45.4878 58.1957 45.5682 58.5865H45.6372C45.7291 58.1957 45.8211 57.8107 45.913 57.4315C46.005 57.0407 46.1026 56.65 46.2061 56.2593L47.4989 51.4153H48.878L50.1881 56.2593C50.2916 56.65 50.3893 57.0407 50.4812 57.4315C50.5846 57.8107 50.6823 58.1957 50.7743 58.5865H50.8432C50.9351 58.1957 51.0213 57.8107 51.1018 57.4315C51.1937 57.0407 51.2799 56.65 51.3604 56.2593L52.5843 51.4153H53.9289L51.6879 59.7931H49.964L48.7574 55.2939C48.6539 54.8917 48.5562 54.4952 48.4643 54.1045C48.3839 53.7137 48.2919 53.3058 48.1885 52.8805H48.1195C48.0276 53.3058 47.9357 53.7195 47.8437 54.1217C47.7518 54.5124 47.6483 54.9089 47.5334 55.3112L46.3612 59.7931H44.7063Z" fill="#232323"/>
<path d="M57.5146 60C56.8136 60 56.2275 59.7931 55.7563 59.3794C55.2966 58.9542 55.0667 58.3681 55.0667 57.6211C55.0667 56.7017 55.4747 56.0007 56.2907 55.518C57.1181 55.0238 58.4225 54.6791 60.2038 54.4837C60.2038 54.1274 60.1521 53.7884 60.0486 53.4666C59.9567 53.1449 59.7843 52.8863 59.5315 52.6909C59.2902 52.4841 58.9396 52.3806 58.4799 52.3806C57.9973 52.3806 57.5433 52.4726 57.1181 52.6564C56.6929 52.8403 56.3137 53.0472 55.9804 53.277L55.4288 52.2944C55.8195 52.0416 56.2964 51.8003 56.8595 51.5704C57.4342 51.3291 58.0547 51.2084 58.7213 51.2084C59.7441 51.2084 60.4853 51.5245 60.945 52.1565C61.4047 52.7771 61.6346 53.6103 61.6346 54.6561V59.7931H60.4624L60.3417 58.7933H60.29C59.8992 59.1151 59.4683 59.3967 58.9971 59.638C58.5374 59.8793 58.0432 60 57.5146 60ZM57.9283 58.8623C58.3305 58.8623 58.7098 58.7646 59.0661 58.5692C59.4223 58.3738 59.8016 58.098 60.2038 57.7418V55.4146C58.8132 55.587 57.8364 55.8455 57.2733 56.1903C56.7216 56.5351 56.4458 56.9775 56.4458 57.5177C56.4458 57.9889 56.5895 58.3336 56.8768 58.552C57.1641 58.7588 57.5146 58.8623 57.9283 58.8623Z" fill="#232323"/>
<path d="M64.2704 59.7931V51.4153H65.4426L65.5633 52.9323H65.615C65.9023 52.4036 66.2529 51.9841 66.6666 51.6738C67.0803 51.3636 67.5228 51.2084 67.9939 51.2084C68.3272 51.2084 68.626 51.2659 68.8903 51.3808L68.6145 52.622C68.4766 52.576 68.3502 52.5415 68.2353 52.5185C68.1204 52.4955 67.9767 52.4841 67.8043 52.4841C67.4481 52.4841 67.0746 52.6277 66.6838 52.915C66.3046 53.2023 65.9713 53.7022 65.684 54.4148V59.7931H64.2704Z" fill="#232323"/>
<path d="M73.4743 60C72.7273 60 72.0492 59.8276 71.4401 59.4828C70.831 59.1266 70.3484 58.6209 69.9921 57.9659C69.6358 57.3108 69.4577 56.5293 69.4577 55.6214C69.4577 54.7021 69.6358 53.9148 69.9921 53.2598C70.3599 52.6047 70.831 52.0991 71.4057 51.7428C71.9803 51.3865 72.5836 51.2084 73.2157 51.2084C74.2845 51.2084 75.1062 51.5647 75.6808 52.2772C76.2669 52.9897 76.5599 53.9436 76.5599 55.1388C76.5599 55.2882 76.5542 55.4376 76.5427 55.587C76.5427 55.7249 76.5312 55.8455 76.5082 55.949H70.854C70.9115 56.8339 71.1873 57.5407 71.6815 58.0693C72.1871 58.5979 72.8422 58.8623 73.6467 58.8623C74.0489 58.8623 74.4166 58.8048 74.7499 58.6899C75.0947 58.5635 75.4222 58.4026 75.7325 58.2072L76.2324 59.1381C75.8762 59.3679 75.4682 59.569 75.0085 59.7414C74.5603 59.9138 74.0489 60 73.4743 60ZM70.8368 54.9319H75.3188C75.3188 54.0815 75.1349 53.4379 74.7671 53.0012C74.4109 52.553 73.9052 52.3289 73.2502 52.3289C72.6641 52.3289 72.1354 52.5588 71.6642 53.0184C71.2045 53.4666 70.9287 54.1045 70.8368 54.9319Z" fill="#232323"/>
<path d="M83.9257 50.9326C83.9257 51.2429 83.9717 51.5647 84.0636 51.8979C84.1671 52.2312 84.2992 52.5702 84.4601 52.915C84.9773 52.5702 85.4255 52.214 85.8047 51.8462C86.1954 51.467 86.3908 51.0303 86.3908 50.5361C86.3908 50.2028 86.3046 49.9155 86.1322 49.6742C85.9714 49.4214 85.7013 49.2949 85.322 49.2949C84.8968 49.2949 84.5578 49.4501 84.305 49.7604C84.0521 50.0707 83.9257 50.4614 83.9257 50.9326ZM84.667 60C83.9889 60 83.3856 59.8678 82.8569 59.6035C82.3398 59.3277 81.9376 58.9542 81.6503 58.483C81.3629 58.0118 81.2193 57.4717 81.2193 56.8626C81.2193 56.3569 81.3227 55.9088 81.5296 55.518C81.7479 55.1273 82.0238 54.7768 82.357 54.4665C82.6903 54.1562 83.0523 53.8689 83.443 53.6046C83.2132 53.1334 83.0293 52.6794 82.8914 52.2427C82.765 51.7945 82.7018 51.3636 82.7018 50.9498C82.7018 50.4442 82.811 49.9902 83.0293 49.588C83.2477 49.1858 83.5522 48.8697 83.943 48.6399C84.3452 48.3986 84.8049 48.2779 85.322 48.2779C86.0231 48.2779 86.5689 48.4847 86.9597 48.8985C87.3504 49.3122 87.5458 49.8523 87.5458 50.5189C87.5458 51.013 87.4194 51.4555 87.1665 51.8462C86.9137 52.237 86.5919 52.5932 86.2012 52.915C85.822 53.2368 85.4197 53.5528 84.9945 53.8631C85.3623 54.4377 85.799 55.0009 86.3046 55.5525C86.8103 56.0926 87.3274 56.5868 87.8561 57.035C88.2009 56.5638 88.5054 56.0524 88.7697 55.5008C89.0455 54.9377 89.2696 54.3343 89.442 53.6907H90.7694C90.551 54.4262 90.2752 55.1388 89.9419 55.8283C89.6201 56.5064 89.2352 57.1442 88.787 57.7418C89.1777 58.0061 89.5512 58.2302 89.9074 58.4141C90.2637 58.5979 90.597 58.7358 90.9073 58.8278L90.528 60C90.1373 59.8851 89.7178 59.7242 89.2696 59.5173C88.8329 59.299 88.3847 59.0289 87.925 58.7071C87.4998 59.0979 87.0171 59.4139 86.477 59.6552C85.9369 59.8851 85.3335 60 84.667 60ZM82.5984 56.7764C82.5984 57.4085 82.811 57.9142 83.2362 58.2934C83.6729 58.6726 84.2015 58.8623 84.8221 58.8623C85.2129 58.8623 85.5864 58.7818 85.9426 58.6209C86.3104 58.46 86.6551 58.2359 86.9769 57.9486C86.4253 57.466 85.8909 56.9373 85.3738 56.3627C84.8681 55.7881 84.4141 55.1962 84.0119 54.5871C83.6212 54.9089 83.2879 55.2479 83.0121 55.6042C82.7363 55.949 82.5984 56.3397 82.5984 56.7764Z" fill="#232323"/>
<path d="M100.622 60C99.634 60 98.7548 59.7702 97.9849 59.3105C97.2149 58.8393 96.6115 58.167 96.1748 57.2936C95.7381 56.4202 95.5198 55.3686 95.5198 54.1389C95.5198 52.9208 95.7439 51.875 96.1921 51.0016C96.6403 50.1281 97.2551 49.4558 98.0366 48.9847C98.818 48.5135 99.7087 48.2779 100.709 48.2779C101.49 48.2779 102.145 48.4273 102.674 48.7261C103.214 49.0134 103.645 49.3294 103.967 49.6742L103.174 50.6051C102.886 50.3063 102.553 50.0534 102.174 49.8466C101.795 49.6397 101.318 49.5363 100.743 49.5363C99.9845 49.5363 99.3237 49.7259 98.7606 50.1052C98.1975 50.4729 97.7608 50.9958 97.4505 51.6738C97.1517 52.3519 97.0023 53.1621 97.0023 54.1045C97.0023 55.5295 97.3241 56.6615 97.9676 57.5004C98.6227 58.3279 99.5536 58.7416 100.76 58.7416C101.162 58.7416 101.547 58.6841 101.915 58.5692C102.283 58.4428 102.576 58.2762 102.794 58.0693V55.1215H100.398V53.9321H104.104V58.6899C103.748 59.0691 103.266 59.3852 102.656 59.638C102.059 59.8793 101.381 60 100.622 60Z" fill="#232323"/>
<path d="M106.676 59.7931V51.4153H108.09V59.7931H106.676ZM107.4 49.6914C107.124 49.6914 106.895 49.611 106.711 49.4501C106.538 49.2777 106.452 49.0479 106.452 48.7606C106.452 48.4847 106.538 48.2606 106.711 48.0883C106.895 47.9159 107.124 47.8297 107.4 47.8297C107.676 47.8297 107.9 47.9159 108.073 48.0883C108.256 48.2606 108.348 48.4847 108.348 48.7606C108.348 49.0479 108.256 49.2777 108.073 49.4501C107.9 49.611 107.676 49.6914 107.4 49.6914Z" fill="#232323"/>
<path d="M111.16 59.7931V52.5702H110.022V51.5015L111.16 51.4153V50.0879C111.16 49.2375 111.355 48.5652 111.746 48.071C112.148 47.5654 112.769 47.3125 113.608 47.3125C113.872 47.3125 114.125 47.3413 114.366 47.3987C114.608 47.4447 114.82 47.5079 115.004 47.5883L114.694 48.6744C114.383 48.5365 114.067 48.4675 113.746 48.4675C112.964 48.4675 112.573 49.0076 112.573 50.0879V51.4153H115.642L115.814 49.0709H116.986V51.4153H119.262V52.5702H116.986V57.2246C116.986 57.7418 117.084 58.144 117.279 58.4313C117.475 58.7071 117.814 58.845 118.297 58.845C118.446 58.845 118.607 58.822 118.779 58.7761C118.952 58.7186 119.107 58.6669 119.245 58.6209L119.52 59.6897C119.291 59.7702 119.038 59.8391 118.762 59.8966C118.498 59.9655 118.233 60 117.969 60C117.073 60 116.446 59.7414 116.09 59.2243C115.745 58.7071 115.573 58.0348 115.573 57.2074V52.5702H112.573V59.7931H111.16Z" fill="#232323"/>
<path d="M123.175 60C122.577 60 122.008 59.8908 121.468 59.6725C120.928 59.4426 120.457 59.1668 120.055 58.845L120.761 57.8969C121.129 58.1842 121.508 58.4256 121.899 58.6209C122.29 58.8048 122.732 58.8967 123.226 58.8967C123.778 58.8967 124.192 58.7703 124.468 58.5175C124.743 58.2532 124.881 57.9429 124.881 57.5866C124.881 57.2993 124.784 57.058 124.588 56.8626C124.404 56.6672 124.163 56.5064 123.864 56.3799C123.577 56.242 123.278 56.1156 122.968 56.0007C122.577 55.8513 122.192 55.6847 121.813 55.5008C121.434 55.3054 121.123 55.0583 120.882 54.7595C120.641 54.4492 120.52 54.0585 120.52 53.5873C120.52 52.9093 120.773 52.3461 121.279 51.8979C121.796 51.4383 122.508 51.2084 123.416 51.2084C123.933 51.2084 124.416 51.3004 124.864 51.4842C125.312 51.6681 125.697 51.8922 126.019 52.1565L125.33 53.0529C125.042 52.8346 124.743 52.6564 124.433 52.5185C124.123 52.3806 123.784 52.3117 123.416 52.3117C122.887 52.3117 122.497 52.4323 122.244 52.6737C122.003 52.915 121.882 53.1966 121.882 53.5184C121.882 53.7827 121.968 54.001 122.14 54.1734C122.313 54.3343 122.537 54.478 122.813 54.6044C123.089 54.7193 123.382 54.84 123.692 54.9664C124.094 55.1158 124.491 55.2882 124.881 55.4835C125.272 55.6674 125.594 55.9202 125.847 56.242C126.111 56.5523 126.243 56.9718 126.243 57.5004C126.243 57.9486 126.123 58.3624 125.881 58.7416C125.651 59.1208 125.307 59.4254 124.847 59.6552C124.399 59.8851 123.841 60 123.175 60Z" fill="#232323"/>
</svg>
