<svg width="60" height="60" viewBox="0 0 60 60" fill="none" xmlns="http://www.w3.org/2000/svg">
<g clip-path="url(#clip0_4_18)">
<path d="M41.4481 17.6883C41.4481 20.141 40.7883 22.6699 39.4863 25.2035C39.3211 25.5258 39.0586 25.7895 38.7363 25.9582C37.6453 26.5277 36.6902 27.218 35.9004 28.009C34.5738 29.3344 33.532 31.1004 32.8043 33.2555C32.2945 34.7695 31.9383 36.4676 31.7484 38.3051C31.6559 39.2004 30.9012 39.8813 30 39.8813C29.0988 39.8813 28.3441 39.2004 28.2516 38.3051C28.0617 36.4676 27.7055 34.7695 27.1957 33.2543C26.468 31.1004 25.4262 29.3344 24.0996 28.009C23.3098 27.218 22.3547 26.5277 21.2637 25.9582C20.9414 25.7895 20.6789 25.5258 20.5137 25.2035C19.2117 22.6699 18.552 20.141 18.552 17.6883C18.552 8.11055 28.5328 0.655078 28.9582 0.342188C29.2688 0.114844 29.6344 0 30 0C30.3656 0 30.7313 0.114844 31.0418 0.342188C31.4672 0.655078 41.4481 8.11055 41.4481 17.6883Z" fill="#00C27A"/>
<path d="M41.448 17.6883C41.448 20.141 40.7883 22.6699 39.4863 25.2035C39.3211 25.5258 39.0586 25.7895 38.7363 25.9582C37.6453 26.5277 36.6902 27.218 35.9004 28.009C34.5738 29.3344 33.532 31.1004 32.8043 33.2555C32.2945 34.7695 31.9383 36.4676 31.7484 38.3051C31.6559 39.2004 30.9012 39.8813 30 39.8813V0C30.3656 0 30.7313 0.114844 31.0418 0.342188C31.4672 0.655078 41.448 8.11055 41.448 17.6883Z" fill="#008E59"/>
<path d="M35.2465 18.8204L31.7578 22.3091V38.1235C31.7578 39.0938 30.9703 39.8813 30 39.8813C29.0297 39.8813 28.2422 39.0938 28.2422 38.1235V22.3091L24.7535 18.8204C24.0668 18.1337 24.0668 17.0204 24.7535 16.3349C25.4391 15.6481 26.5523 15.6481 27.2391 16.3349L28.2422 17.338V12.231C28.2422 11.2606 29.0297 10.4731 30 10.4731C30.9703 10.4731 31.7578 11.2606 31.7578 12.231V17.338L32.7609 16.3349C33.4477 15.6481 34.5609 15.6481 35.2465 16.3349C35.9332 17.0204 35.9332 18.1337 35.2465 18.8204Z" fill="#008E59"/>
<path d="M35.2465 18.8204L31.7578 22.3091V38.1235C31.7578 39.0938 30.9703 39.8813 30 39.8813V10.4731C30.9703 10.4731 31.7578 11.2606 31.7578 12.231V17.338L32.7609 16.3349C33.4477 15.6481 34.5609 15.6481 35.2465 16.3349C35.9332 17.0204 35.9332 18.1337 35.2465 18.8204Z" fill="#047C51"/>
<path d="M49.6043 41.7128C45.2309 46.0851 38.441 46.8902 34.0383 46.8902C32.0766 46.8902 30.5895 46.7308 30 46.6558C28.0875 46.8984 16.7168 48.0339 10.3957 41.7128C3.62344 34.9417 5.40938 22.6113 5.48906 22.0886C5.60508 21.3281 6.20156 20.7316 6.96211 20.6156C7.33125 20.5593 16.0781 19.282 22.8914 22.8421C24.3 23.5769 25.5434 24.4792 26.5863 25.5222C27.9914 26.9273 29.1363 28.6769 30 30.7359C30.8648 28.6769 32.0086 26.9273 33.4137 25.5222C34.4566 24.4792 35.7 23.5769 37.1098 22.841C43.9219 19.282 52.6688 20.5593 53.0379 20.6156C53.7984 20.7316 54.3949 21.3281 54.5109 22.0886C54.5906 22.6113 56.3766 34.9417 49.6043 41.7128Z" fill="#81E46F"/>
<path d="M49.6043 41.7128C45.2309 46.0851 38.441 46.8902 34.0383 46.8902C32.0766 46.8902 30.5895 46.7308 30 46.6558V30.7359C30.8648 28.6769 32.0086 26.9273 33.4137 25.5222C34.4566 24.4792 35.7 23.5769 37.1098 22.841C43.9219 19.282 52.6688 20.5593 53.0379 20.6156C53.7984 20.7316 54.3949 21.3281 54.5109 22.0886C54.5906 22.6113 56.3766 34.9417 49.6043 41.7128Z" fill="#00C27A"/>
<path d="M46.6371 30.9761L43.0852 34.5269H44.427C45.3984 34.5269 46.1848 35.3144 46.1848 36.2847C46.1848 37.2562 45.3984 38.0425 44.427 38.0425H39.5695L31.7578 45.8542V58.2421C31.7578 59.2125 30.9703 60 30 60C29.0297 60 28.2422 59.2125 28.2422 58.2421V45.8542L20.4305 38.0425H15.5731C14.6016 38.0425 13.8152 37.2562 13.8152 36.2847C13.8152 35.3144 14.6016 34.5269 15.5731 34.5269H16.9148L13.3629 30.9761C12.6762 30.2894 12.6762 29.1761 13.3629 28.4894C14.0496 27.8027 15.1629 27.8027 15.8496 28.4894L19.4004 32.0414V30.6996C19.4004 29.7281 20.1879 28.9417 21.1582 28.9417C22.1297 28.9417 22.916 29.7281 22.916 30.6996V35.557L30 42.641L37.084 35.557V30.6996C37.084 29.7281 37.8703 28.9417 38.8418 28.9417C39.8121 28.9417 40.5996 29.7281 40.5996 30.6996V32.0414L44.1504 28.4894C44.8371 27.8027 45.9504 27.8027 46.6371 28.4894C47.3238 29.1761 47.3238 30.2894 46.6371 30.9761Z" fill="#00C27A"/>
<path d="M46.6371 30.9761L43.0852 34.5269H44.427C45.3984 34.5269 46.1848 35.3144 46.1848 36.2847C46.1848 37.2562 45.3984 38.0425 44.427 38.0425H39.5695L31.7578 45.8542V58.2421C31.7578 59.2125 30.9703 60 30 60V42.641L37.084 35.557V30.6996C37.084 29.7281 37.8703 28.9417 38.8418 28.9417C39.8121 28.9417 40.5996 29.7281 40.5996 30.6996V32.0414L44.1504 28.4894C44.8371 27.8027 45.9504 27.8027 46.6371 28.4894C47.3238 29.1761 47.3238 30.2894 46.6371 30.9761Z" fill="#008E59"/>
</g>
<defs>
<clipPath id="clip0_4_18">
<rect width="60" height="60" fill="white"/>
</clipPath>
</defs>
</svg>
