<svg width="40" height="40" viewBox="0 0 40 40" fill="none" xmlns="http://www.w3.org/2000/svg">
<g clip-path="url(#clip0_103_77)">
<path d="M30 10H26.6666C26.6666 6.31667 23.6833 3.33333 20 3.33333C16.3166 3.33333 13.3333 6.31667 13.3333 10H9.99996C8.16663 10 6.66663 11.5 6.66663 13.3333V33.3333C6.66663 35.1667 8.16663 36.6667 9.99996 36.6667H30C31.8333 36.6667 33.3333 35.1667 33.3333 33.3333V13.3333C33.3333 11.5 31.8333 10 30 10ZM20 6.66667C21.8333 6.66667 23.3333 8.16667 23.3333 10H16.6666C16.6666 8.16667 18.1666 6.66667 20 6.66667ZM30 33.3333H9.99996V13.3333H13.3333V16.6667C13.3333 17.5833 14.0833 18.3333 15 18.3333C15.9166 18.3333 16.6666 17.5833 16.6666 16.6667V13.3333H23.3333V16.6667C23.3333 17.5833 24.0833 18.3333 25 18.3333C25.9166 18.3333 26.6666 17.5833 26.6666 16.6667V13.3333H30V33.3333Z" fill="#232323"/>
</g>
<defs>
<clipPath id="clip0_103_77">
<rect width="40" height="40" fill="white"/>
</clipPath>
</defs>
</svg>
